/* XPM */
static char * door_xpm[] = {
"32 32 198 2",
"  	c #858C92",
". 	c #7C858A",
"+ 	c #777F85",
"@ 	c #525252",
"# 	c #565656",
"$ 	c #5F5F5F",
"% 	c #686868",
"& 	c #81868B",
"* 	c #868D92",
"= 	c #7B7F85",
"- 	c #777C82",
"; 	c #7E848A",
"> 	c #454545",
", 	c #494949",
"' 	c #489387",
") 	c #797D83",
"! 	c #7D8185",
"~ 	c #797C81",
"{ 	c #868B91",
"] 	c #929BA1",
"^ 	c #4E4E4E",
"/ 	c #428286",
"( 	c #72747A",
"_ 	c #717378",
": 	c #808388",
"< 	c #8F959C",
"[ 	c #98A1A8",
"} 	c #376F79",
"| 	c #6E7075",
"1 	c #707277",
"2 	c #85878C",
"3 	c #898D93",
"4 	c #83898F",
"5 	c #67696E",
"6 	c #73757A",
"7 	c #898C92",
"8 	c #83878D",
"9 	c #777C81",
"0 	c #6D6F74",
"a 	c #7F8186",
"b 	c #8F9399",
"c 	c #868B90",
"d 	c #797F83",
"e 	c #6F7477",
"f 	c #2F5F68",
"g 	c #676A6E",
"h 	c #7B7E83",
"i 	c #8B8E94",
"j 	c #91969C",
"k 	c #838990",
"l 	c #767C80",
"m 	c #666B6F",
"n 	c #85888C",
"o 	c #94979D",
"p 	c #90979D",
"q 	c #80878C",
"r 	c #70767B",
"s 	c #606669",
"t 	c #7C8084",
"u 	c #8B8E93",
"v 	c #979DA3",
"w 	c #868D93",
"x 	c #757D81",
"y 	c #6B7175",
"z 	c #62686B",
"A 	c #295B58",
"B 	c #7C7F84",
"C 	c #888C91",
"D 	c #92999F",
"E 	c #777D82",
"F 	c #6B7276",
"G 	c #696F73",
"H 	c #6B7174",
"I 	c #7E8386",
"J 	c #8A8F94",
"K 	c #8B9298",
"L 	c #72787C",
"M 	c #6E7377",
"N 	c #6D7276",
"O 	c #71767A",
"P 	c #8E9296",
"Q 	c #989DA3",
"R 	c #8D949A",
"S 	c #767D81",
"T 	c #767B7F",
"U 	c #6F7377",
"V 	c #72767A",
"W 	c #234C4E",
"X 	c #9B9FA5",
"Y 	c #9FA5AC",
"Z 	c #8A9297",
"` 	c #72777C",
" .	c #6F7277",
"..	c #707376",
"+.	c #9BA1A8",
"@.	c #9DA5AC",
"#.	c #6B7074",
"$.	c #5C5F62",
"%.	c #585B5D",
"&.	c #6D6F72",
"*.	c #1D3D3B",
"=.	c #959CA1",
"-.	c #98A2A8",
";.	c #70757A",
">.	c #6A6E72",
",.	c #4F5153",
"'.	c #58595A",
").	c #76777A",
"!.	c #9DA5AB",
"~.	c #A9B4BD",
"{.	c #676C71",
"].	c #9DA6AC",
"^.	c #6B6F73",
"/.	c #6F7174",
"(.	c #808386",
"_.	c #ACB4BB",
":.	c #ABB8C1",
"<.	c #7D8288",
"[.	c #A6B0B9",
"}.	c #9099A0",
"|.	c #7B8186",
"1.	c #76797D",
"2.	c #969FA6",
"3.	c #868E95",
"4.	c #9298A0",
"5.	c #99A4AC",
"6.	c #868F96",
"7.	c #70777C",
"8.	c #686C71",
"9.	c #888F96",
"0.	c #828A91",
"a.	c #98A2AA",
"b.	c #697075",
"c.	c #5B6166",
"d.	c #565A5E",
"e.	c #5C6065",
"f.	c #7B8087",
"g.	c #787F85",
"h.	c #798087",
"i.	c #51565A",
"j.	c #4E5356",
"k.	c #52565A",
"l.	c #5B5E63",
"m.	c #74797E",
"n.	c #696E73",
"o.	c #5C6166",
"p.	c #71777B",
"q.	c #63676B",
"r.	c #5F6266",
"s.	c #7B8085",
"t.	c #767B80",
"u.	c #8E959C",
"v.	c #7C8287",
"w.	c #626569",
"x.	c #878C91",
"y.	c #8B9196",
"z.	c #8F969A",
"A.	c #8C9399",
"B.	c #6F757A",
"C.	c #64686B",
"D.	c #888D91",
"E.	c #8E959A",
"F.	c #797E84",
"G.	c #61666A",
"H.	c #606468",
"I.	c #686B6F",
"J.	c #81868A",
"K.	c #83898E",
"L.	c #696E72",
"M.	c #62666A",
"N.	c #696C70",
"O.	c #6C6F73",
"P.	c #6F7375",
"Q.	c #717479",
"R.	c #767A7F",
"S.	c #717376",
"T.	c #888B91",
"U.	c #898D92",
"V.	c #818286",
"W.	c #83858A",
"X.	c #989CA1",
"Y.	c #9CA1A7",
"Z.	c #909497",
"`.	c #94999D",
" +	c #A1A7AD",
".+	c #A4ABB3",
"++	c #A1A8B1",
"@+	c #979EA3",
"#+	c #99A0A6",
"$+	c #9FA7AF",
"%+	c #A3ACB4",
"&+	c #A1AAB3",
"*+	c #90979C",
"=+	c #959DA3",
"-+	c #939CA3",
";+	c #959FA7",
">+	c #8F9AA1",
",+	c #848B90",
"  . + @ # # # # # # # # $ % % % % % % % $ # # # # # # # # @ & * ",
"= - ; @ # > > # , , , $ % % ' ' ' ' ' % % $ , , , # > > # @ ) ! ",
"~ { ] $ # > , # ^ @ $ % % ' ' / / / / ' % % $ ^ ^ # , > # $ ( _ ",
": < [ $ # > # ^ @ @ $ % ' ' / / } } / / ' % % $ @ ^ # > # $ | 1 ",
"2 3 4 $ # , # @ @ $ % % ' / / } } } } / / ' % % $ @ # , # $ 5 6 ",
"7 8 9 $ # , # @ @ $ % ' ' / } } } } } / / ' ' % $ @ # , # $ 0 a ",
"b c d e # # ^ @ $ % % ' ' / } } } f } } / / ' % $ @ ^ # # g h i ",
"j k l m # # ^ @ $ % ' ' / / } } } f f } / / ' % % $ @ # # e n o ",
"p q r s # , ^ $ % % ' ' / } } } f f f } } / / ' % $ @ , # t u v ",
"w x y z # , ^ $ % ' ' / / } } f f A f } } / / ' % $ @ , # B C D ",
"E F G H # , ^ $ % ' ' / } } f f A A f } } / / ' % $ @ , # I J K ",
"L M N O # , ^ $ % ' / } } } f f A A f } } / / ' % % $ , # P Q R ",
"S T U V # , $ % % ' / } } } f A A W f } } / / ' ' % $ , # X Y Z ",
"`  .g ..# , $ % ' ' / } } f f A W W f f } } / / ' % $ , # +.@.; ",
"#.$.%.&.# $ % % ' / / } } f f A W *.A f } } / / ' % $ , # =.-.;.",
">.,.'.).# $ % ' ' / } } } f f A W *.A f } } / / ' % % $ # !.~.{.",
"].^./.(.# $ % ' / / } } } f f A *.*.W f } } / / ' ' % $ # _.:.<.",
"[.}.|.1.# $ % ' / / } } f f A A W *.A f } } / / ' ' % $ # 2.3.4.",
"5.6.7.8.# $ % ' / / } } f f A W *.*.A f } } / / ' ' % $ # 9.0.a.",
"b.c.d.e.# $ % ' / / } } f f A W *.W A f } } / / ' ' % $ # f.g.h.",
"i.j.k.l.# $ % % ' / / } f f A A W A f f } } / / ' % % $ # m.n.o.",
"p.y q.r.# , $ % ' / / } } f f A A A f } } / / / ' % $ , # s.t.p.",
"u.v.8.w.# , $ % ' / / } } f f A A f f } } / / ' ' % $ , # x.y.z.",
"A.B.q.C.# , $ % ' ' / } } } f f f f } } / / ' ' % % $ , # D.E.=.",
"F.G.H.I.# , $ % % ' / / } } f f f } } } / / ' % % $ @ , # s.J.K.",
"L.M.N.O.# , ^ $ % ' / / } } } f } } } } / ' ' % $ @ ^ , # /.P.M ",
"U Q.R.$ # # ^ $ % % ' / / } } } } } } / / ' ' % $ @ ^ # # $ S...",
"2 T.U.$ # # ^ @ $ % % ' / / / } } } / / ' ' % % $ @ ^ # # $ V.W.",
"X.Y.v $ # > # ^ @ $ % % ' / / / } / / / ' ' % $ @ ^ # > # $ Z.`.",
" +.+++$ # > , # ^ ^ $ % % ' / / / / / ' ' % % $ ^ # , > # $ @+#+",
"$+%+&+@ # > > # , , , $ % % ' ' / / ' % % % $ , , # > > # @ *+=+",
"-+;+>+@ # # # # # # # # # % % % % % % % # # # # # # # # # @ ,+A."};
