/* XPM */
static char * vide_xpm[] = {
"32 32 365 2",
"  	c #858C92",
". 	c #7C858A",
"+ 	c #777F85",
"@ 	c #7A8388",
"# 	c #71797E",
"$ 	c #788086",
"% 	c #7F898E",
"& 	c #72797E",
"* 	c #595E61",
"= 	c #5D6164",
"- 	c #83878A",
"; 	c #A1A6AA",
"> 	c #ACB4BB",
", 	c #ABB8C1",
"' 	c #7D8288",
") 	c #9DA6AC",
"! 	c #6B6F73",
"~ 	c #6F7174",
"{ 	c #808386",
"] 	c #888B8F",
"^ 	c #7C8285",
"/ 	c #72777A",
"( 	c #777E81",
"_ 	c #848B8F",
": 	c #8C9497",
"< 	c #8F979D",
"[ 	c #878F94",
"} 	c #7B8287",
"| 	c #7B8186",
"1 	c #81868B",
"2 	c #868D92",
"3 	c #7B7F85",
"4 	c #777C82",
"5 	c #7E848A",
"6 	c #868F95",
"7 	c #7D858B",
"8 	c #676E73",
"9 	c #5A6064",
"0 	c #575C5F",
"a 	c #5C6063",
"b 	c #6E7176",
"c 	c #8C9095",
"d 	c #99A0A6",
"e 	c #969FA6",
"f 	c #868E95",
"g 	c #9298A0",
"h 	c #A6B0B9",
"i 	c #9099A0",
"j 	c #76797D",
"k 	c #7B7F83",
"l 	c #7E8285",
"m 	c #858A8E",
"n 	c #8C9398",
"o 	c #8F979C",
"p 	c #899095",
"q 	c #7E8489",
"r 	c #74787E",
"s 	c #75797F",
"t 	c #797D83",
"u 	c #7D8185",
"v 	c #797C81",
"w 	c #868B91",
"x 	c #929BA1",
"y 	c #97A2A9",
"z 	c #818B91",
"A 	c #5C6467",
"B 	c #484C4F",
"C 	c #474B4D",
"D 	c #545759",
"E 	c #636669",
"F 	c #75787C",
"G 	c #878C90",
"H 	c #5F5F5F",
"I 	c #717579",
"J 	c #7F8488",
"K 	c #8B9296",
"L 	c #929B9F",
"M 	c #90989D",
"N 	c #8E979C",
"O 	c #8B9299",
"P 	c #838A8F",
"Q 	c #797E83",
"R 	c #75787D",
"S 	c #72747A",
"T 	c #717378",
"U 	c #808388",
"V 	c #8F959C",
"W 	c #98A1A8",
"X 	c #939FA6",
"Y 	c #7B838A",
"Z 	c #565A5E",
"` 	c #45474A",
" .	c #4A4D4F",
"..	c #5D5F62",
"+.	c #6C6E72",
"@.	c #525252",
"#.	c #868F94",
"$.	c #848D91",
"%.	c #899197",
"&.	c #8B949B",
"*.	c #82898E",
"=.	c #777B81",
"-.	c #71767A",
";.	c #6E7075",
">.	c #707277",
",.	c #85878C",
"'.	c #898D93",
").	c #83898F",
"!.	c #676F73",
"~.	c #4B5053",
"{.	c #3F4244",
"].	c #4E5053",
"^.	c #565656",
"/.	c #798085",
"(.	c #838B90",
"_.	c #838C91",
":.	c #70777D",
"<.	c #63686C",
"[.	c #64686C",
"}.	c #67696E",
"|.	c #73757A",
"1.	c #898C92",
"2.	c #83878D",
"3.	c #777C81",
"4.	c #6A7276",
"5.	c #5C6266",
"6.	c #474B4E",
"7.	c #414446",
"8.	c #848C91",
"9.	c #62686C",
"0.	c #5F6267",
"a.	c #6D6F74",
"b.	c #7F8186",
"c.	c #8F9399",
"d.	c #868B90",
"e.	c #797F83",
"f.	c #6F7477",
"g.	c #5D6265",
"h.	c #4E5356",
"i.	c #376F79",
"j.	c #428286",
"k.	c #696E73",
"l.	c #575B5F",
"m.	c #595E60",
"n.	c #676A6E",
"o.	c #7B7E83",
"p.	c #8B8E94",
"q.	c #91969C",
"r.	c #838990",
"s.	c #767C80",
"t.	c #666B6F",
"u.	c #5A5F62",
"v.	c #489387",
"w.	c #55585A",
"x.	c #606467",
"y.	c #85888C",
"z.	c #94979D",
"A.	c #90979D",
"B.	c #80878C",
"C.	c #70767B",
"D.	c #606669",
"E.	c #6E7376",
"F.	c #7C8084",
"G.	c #8B8E93",
"H.	c #979DA3",
"I.	c #868D93",
"J.	c #757D81",
"K.	c #6B7175",
"L.	c #62686B",
"M.	c #777A7E",
"N.	c #7C7F84",
"O.	c #888C91",
"P.	c #92999F",
"Q.	c #777D82",
"R.	c #6B7276",
"S.	c #696F73",
"T.	c #2F5F68",
"U.	c #7E8386",
"V.	c #8A8F94",
"W.	c #8B9298",
"X.	c #72787C",
"Y.	c #6E7377",
"Z.	c #6D7276",
"`.	c #295B58",
" +	c #8E9296",
".+	c #989DA3",
"++	c #8D949A",
"@+	c #767D81",
"#+	c #767B7F",
"$+	c #234C4E",
"%+	c #9FA5AC",
"&+	c #8A9297",
"*+	c #72777C",
"=+	c #6F7277",
"-+	c #9DA5AC",
";+	c #6B7074",
">+	c #5C5F62",
",+	c #1D3D3B",
"'+	c #98A2A8",
")+	c #70757A",
"!+	c #6A6E72",
"~+	c #4F5153",
"{+	c #A9B4BD",
"]+	c #676C71",
"^+	c #99A4AC",
"/+	c #868F96",
"(+	c #828A91",
"_+	c #98A2AA",
":+	c #697075",
"<+	c #5B6166",
"[+	c #787F85",
"}+	c #798087",
"|+	c #51565A",
"1+	c #52565A",
"2+	c #74797E",
"3+	c #5C6166",
"4+	c #71777B",
"5+	c #63676B",
"6+	c #7B8085",
"7+	c #767B80",
"8+	c #8E959C",
"9+	c #7C8287",
"0+	c #686C71",
"a+	c #626569",
"b+	c #82868A",
"c+	c #878C91",
"d+	c #8B9196",
"e+	c #8F969A",
"f+	c #8C9399",
"g+	c #6F757A",
"h+	c #64686B",
"i+	c #81868A",
"j+	c #888D91",
"k+	c #8E959A",
"l+	c #959CA1",
"m+	c #797E84",
"n+	c #61666A",
"o+	c #606468",
"p+	c #686B6F",
"q+	c #787D81",
"r+	c #797E82",
"s+	c #83898E",
"t+	c #696E72",
"u+	c #62666A",
"v+	c #696C70",
"w+	c #6C6F73",
"x+	c #6A6C70",
"y+	c #66686C",
"z+	c #75797C",
"A+	c #7A7E82",
"B+	c #73777A",
"C+	c #6F7375",
"D+	c #6F7377",
"E+	c #717479",
"F+	c #767A7F",
"G+	c #72767A",
"H+	c #66696D",
"I+	c #5B5E61",
"J+	c #555758",
"K+	c #6B6E70",
"L+	c #7D8084",
"M+	c #7A7F83",
"N+	c #6C7072",
"O+	c #6C6E70",
"P+	c #717376",
"Q+	c #707376",
"R+	c #888B91",
"S+	c #898D92",
"T+	c #65696C",
"U+	c #56585A",
"V+	c #555658",
"W+	c #616163",
"X+	c #5A5E61",
"Y+	c #6E7174",
"Z+	c #82858A",
"`+	c #7B7E82",
" @	c #6C6F72",
".@	c #747679",
"+@	c #818286",
"@@	c #83858A",
"#@	c #989CA1",
"$@	c #9CA1A7",
"%@	c #848A8F",
"&@	c #5A5C5E",
"*@	c #646566",
"=@	c #777779",
"-@	c #828386",
";@	c #838487",
">@	c #80888D",
",@	c #62676B",
"'@	c #5B5F62",
")@	c #74777C",
"!@	c #818489",
"~@	c #76797C",
"{@	c #85898C",
"]@	c #909497",
"^@	c #94999D",
"/@	c #A1A7AD",
"(@	c #A4ABB3",
"_@	c #A1A8B1",
":@	c #8D949B",
"<@	c #6F7579",
"[@	c #636569",
"}@	c #75767A",
"|@	c #8B8C90",
"1@	c #8F9496",
"2@	c #818487",
"3@	c #747678",
"4@	c #7C7E82",
"5@	c #7F8487",
"6@	c #838A8E",
"7@	c #737B7F",
"8@	c #5D6366",
"9@	c #5E6265",
"0@	c #787C7F",
"a@	c #8B9095",
"b@	c #888D93",
"c@	c #818589",
"d@	c #8D9297",
"e@	c #979EA3",
"f@	c #9FA7AF",
"g@	c #A3ACB4",
"h@	c #A1AAB3",
"i@	c #919CA3",
"j@	c #757C82",
"k@	c #82878B",
"l@	c #949BA0",
"m@	c #71777A",
"n@	c #5F6265",
"o@	c #717476",
"p@	c #83888B",
"q@	c #585B5D",
"r@	c #6D6F72",
"s@	c #7E8286",
"t@	c #82888C",
"u@	c #686D71",
"v@	c #7D8386",
"w@	c #8E969B",
"x@	c #8F979B",
"y@	c #858B90",
"z@	c #898F93",
"A@	c #90979C",
"B@	c #959DA3",
"C@	c #939CA3",
"D@	c #959FA7",
"E@	c #8F9AA1",
"F@	c #879298",
"G@	c #72797F",
"H@	c #9BA4AA",
"I@	c #8B949A",
"J@	c #5F6467",
"K@	c #535557",
"L@	c #737678",
"M@	c #909597",
"N@	c #9DA5AB",
"O@	c #58595A",
"P@	c #76777A",
"Q@	c #85898B",
"R@	c #82898D",
"S@	c #747A7E",
"T@	c #868D91",
"U@	c #939DA2",
"V@	c #929A9F",
"W@	c #848B90",
"X@	c #80868B",
"  . + @ + # $ % & * = - ; > , ' ) ! ~ { ] ^ / ( _ : < [ } | 1 2 ",
"3 4 5 6 7 8 9 0 0 a b c d e f g h i | j k l m n o o p q r s t u ",
"v w x y z A B C D E F G H H H H H H H H I J K L M N O P Q R S T ",
"U V W X Y Z `  ...+.H H H @.@.@.@.@.@.H H H _ #.$.%.&.*.=.-.;.>.",
",.'.).$ !.~.{.].H H H @.@.^.^.^.^.^.^.@.@.H H H /.(._.:.<.[.}.|.",
"1.2.3.4.5.6.7.H H @.^.^.^.^.H H H H ^.^.^.^.@.H H 8./.9.* 0.a.b.",
"c.d.e.f.g.h.H H @.^.^.H H H i.j.j.i.H H H ^.^.@.H H k.l.m.n.o.p.",
"q.r.s.t.u.H H @.^.^.H i.j.j.v.v.v.v.j.j.i.H ^.^.@.H H w.x.f.y.z.",
"A.B.C.D.H H @.^.^.H i.j.v.v.j.j.j.j.j.v.j.i.H ^.^.@.H H E.F.G.H.",
"I.J.K.L.H @.^.^.H i.j.v.j.j.i.i.i.i.i.j.v.j.i.H ^.^.@.H M.N.O.P.",
"Q.R.S.H H ^.^.H i.j.v.j.i.i.i.T.T.T.i.i.j.v.j.i.H ^.^.H H U.V.W.",
"X.Y.Z.H @.^.H i.j.v.j.i.i.T.T.`.`.`.T.i.i.j.v.j.i.H ^.@.H  +.+++",
"@+#+H H @.^.H j.v.j.i.i.T.`.`.`.$+`.`.T.i.i.j.v.j.H ^.@.H H %+&+",
"*+=+H @.^.^.H j.j.i.i.T.`.`.$+$+$+$+`.`.T.i.j.v.j.H ^.^.@.H -+5 ",
";+>+H @.^.H i.v.j.i.T.`.`.$+$+$+,+$+$+`.T.i.i.j.v.i.H ^.@.H '+)+",
"!+~+H @.^.H j.v.j.i.T.`.$+$+,+,+,+$+$+`.`.T.i.j.v.j.H ^.@.H {+]+",
") ! H @.^.H j.v.j.i.T.`.`.$+$+,+,+,+$+$+`.T.i.j.v.j.H ^.@.H , ' ",
"h i H @.^.H i.v.j.i.i.T.`.$+$+,+$+$+$+`.`.T.i.j.v.i.H ^.@.H f g ",
"^+/+H @.^.^.H j.v.j.i.T.`.`.$+$+$+$+`.`.T.i.i.j.j.H ^.^.@.H (+_+",
":+<+H H @.^.H j.v.j.i.i.T.`.`.$+`.`.`.T.i.i.j.v.j.H ^.@.H H [+}+",
"|+h.1+H @.^.H i.j.v.j.i.i.T.`.`.`.T.T.i.i.j.v.j.i.H ^.@.H 2+k.3+",
"4+K.5+H H ^.^.H i.j.v.j.i.i.T.T.T.i.i.i.j.v.j.i.H ^.^.H H 6+7+4+",
"8+9+0+a+H @.^.^.H i.j.v.j.i.i.i.i.i.j.j.v.j.i.H ^.^.@.H b+c+d+e+",
"f+g+5+h+H H @.^.^.H i.j.v.j.j.j.j.j.v.v.j.i.H ^.^.@.H H i+j+k+l+",
"m+n+o+p++.H H @.^.^.H i.j.j.v.v.v.v.j.j.i.H ^.^.@.H H q+r+6+i+s+",
"t+u+v+w+x+y+H H @.^.^.H H H i.j.j.i.H H H ^.^.@.H H z+A+B+~ C+Y.",
"D+E+F+G+H+I+J+H H @.^.^.^.^.H H H H ^.^.^.^.@.H H K+L+M+N+O+P+Q+",
",.R+S+6+T+U+V+W+H H H @.@.^.^.^.^.^.^.@.@.H H H X+Y+Z+`+ @.@+@@@",
"#@$@H.%@v+&@*@=@-@;@H H H @.@.@.@.@.@.H H H >@,@'@)@] !@~@{@]@^@",
"/@(@_@:@<@[@}@|@1@2@3@4@H H H H H H H H 5@6@7@8@9@0@a@b@c@d@e@d ",
"f@g@h@i@j@Z.k@e@l@m@n@o@p@l+'+)+;+>+q@r@s@t@4+L.u@v@w@x@y@z@A@B@",
"C@D@E@F@+ G@p H@I@J@K@L@M@N@{+]+!+~+O@P@Q@R@<@S.S@T@U@V@W@X@W@f+"};
