/* XPM */
static char * charu_xpm[] = {
"32 32 411 2",
"  	c #858C92",
". 	c #7C858A",
"+ 	c #777F85",
"@ 	c #7A8388",
"# 	c #71797E",
"$ 	c #788086",
"% 	c #7F898E",
"& 	c #72797E",
"* 	c #595E61",
"= 	c #5D6164",
"- 	c #83878A",
"; 	c #261F26",
"> 	c #4D2E40",
", 	c #684560",
"' 	c #7C8285",
") 	c #72777A",
"! 	c #777E81",
"~ 	c #848B8F",
"{ 	c #8C9497",
"] 	c #8F979D",
"^ 	c #878F94",
"/ 	c #7B8287",
"( 	c #7B8186",
"_ 	c #81868B",
": 	c #868D92",
"< 	c #7B7F85",
"[ 	c #777C82",
"} 	c #7E848A",
"| 	c #868F95",
"1 	c #7D858B",
"2 	c #676E73",
"3 	c #5A6064",
"4 	c #575C5F",
"5 	c #5C6063",
"6 	c #896384",
"7 	c #917D89",
"8 	c #8C9398",
"9 	c #8F979C",
"0 	c #899095",
"a 	c #7E8489",
"b 	c #74787E",
"c 	c #75797F",
"d 	c #797D83",
"e 	c #7D8185",
"f 	c #797C81",
"g 	c #868B91",
"h 	c #929BA1",
"i 	c #97A2A9",
"j 	c #818B91",
"k 	c #5C6467",
"l 	c #484C4F",
"m 	c #474B4D",
"n 	c #545759",
"o 	c #8E979C",
"p 	c #8B9299",
"q 	c #838A8F",
"r 	c #797E83",
"s 	c #75787D",
"t 	c #72747A",
"u 	c #717378",
"v 	c #808388",
"w 	c #8F959C",
"x 	c #98A1A8",
"y 	c #939FA6",
"z 	c #7B838A",
"A 	c #565A5E",
"B 	c #45474A",
"C 	c #4A4D4F",
"D 	c #8B949B",
"E 	c #82898E",
"F 	c #777B81",
"G 	c #71767A",
"H 	c #6E7075",
"I 	c #707277",
"J 	c #85878C",
"K 	c #898D93",
"L 	c #83898F",
"M 	c #676F73",
"N 	c #4B5053",
"O 	c #3F4244",
"P 	c #70777D",
"Q 	c #63686C",
"R 	c #64686C",
"S 	c #67696E",
"T 	c #73757A",
"U 	c #898C92",
"V 	c #83878D",
"W 	c #777C81",
"X 	c #6A7276",
"Y 	c #5C6266",
"Z 	c #474B4E",
"` 	c #414446",
" .	c #000000",
"..	c #5F6267",
"+.	c #6D6F74",
"@.	c #7F8186",
"#.	c #8F9399",
"$.	c #868B90",
"%.	c #797F83",
"&.	c #6F7477",
"*.	c #5D6265",
"=.	c #4E5356",
"-.	c #54575A",
";.	c #575B5F",
">.	c #595E60",
",.	c #676A6E",
"'.	c #7B7E83",
").	c #8B8E94",
"!.	c #91969C",
"~.	c #838990",
"{.	c #767C80",
"].	c #666B6F",
"^.	c #5A5F62",
"/.	c #55585A",
"(.	c #606467",
"_.	c #85888C",
":.	c #94979D",
"<.	c #90979D",
"[.	c #80878C",
"}.	c #70767B",
"|.	c #606669",
"1.	c #606567",
"2.	c #727679",
"3.	c #6E7376",
"4.	c #7C8084",
"5.	c #8B8E93",
"6.	c #979DA3",
"7.	c #868D93",
"8.	c #757D81",
"9.	c #6B7175",
"0.	c #62686B",
"a.	c #717579",
"b.	c #878D90",
"c.	c #777A7E",
"d.	c #7C7F84",
"e.	c #888C91",
"f.	c #92999F",
"g.	c #777D82",
"h.	c #6B7276",
"i.	c #696F73",
"j.	c #6B7174",
"k.	c #7F858A",
"l.	c #959CA1",
"m.	c #7D7F83",
"n.	c #7E8386",
"o.	c #8A8F94",
"p.	c #8B9298",
"q.	c #72787C",
"r.	c #6E7377",
"s.	c #6D7276",
"t.	c #959DA2",
"u.	c #878B90",
"v.	c #8E9296",
"w.	c #989DA3",
"x.	c #8D949A",
"y.	c #767D81",
"z.	c #767B7F",
"A.	c #6F7377",
"B.	c #72767A",
"C.	c #80868A",
"D.	c #8B9297",
"E.	c #909499",
"F.	c #9B9FA5",
"G.	c #9FA5AC",
"H.	c #8A9297",
"I.	c #72777C",
"J.	c #6F7277",
"K.	c #707376",
"L.	c #7F8487",
"M.	c #838A8E",
"N.	c #7C7E82",
"O.	c #8A8E94",
"P.	c #9BA1A8",
"Q.	c #9DA5AC",
"R.	c #6B7074",
"S.	c #5C5F62",
"T.	c #585B5D",
"U.	c #6D6F72",
"V.	c #7E8286",
"W.	c #82888C",
"X.	c #71777B",
"Y.	c #5F6265",
"Z.	c #717476",
"`.	c #83888B",
" +	c #98A2A8",
".+	c #70757A",
"++	c #6A6E72",
"@+	c #4F5153",
"#+	c #58595A",
"$+	c #76777A",
"%+	c #85898B",
"&+	c #82898D",
"*+	c #6F7579",
"=+	c #414444",
"-+	c #65696B",
";+	c #5F6467",
">+	c #535557",
",+	c #737678",
"'+	c #909597",
")+	c #9DA5AB",
"!+	c #A9B4BD",
"~+	c #676C71",
"{+	c #9DA6AC",
"]+	c #6B6F73",
"^+	c #6F7174",
"/+	c #808386",
"(+	c #888B8F",
"_+	c #81878B",
":+	c #929799",
"<+	c #382020",
"[+	c #A1A6AA",
"}+	c #ACB4BB",
"|+	c #ABB8C1",
"1+	c #7D8288",
"2+	c #A6B0B9",
"3+	c #9099A0",
"4+	c #76797D",
"5+	c #7B7F83",
"6+	c #7E8285",
"7+	c #858A8E",
"8+	c #1A211C",
"9+	c #9C8282",
"0+	c #644C4C",
"a+	c #6E7176",
"b+	c #8C9095",
"c+	c #99A0A6",
"d+	c #969FA6",
"e+	c #868E95",
"f+	c #9298A0",
"g+	c #99A4AC",
"h+	c #868F96",
"i+	c #70777C",
"j+	c #686C71",
"k+	c #7F8488",
"l+	c #8B9296",
"m+	c #384337",
"n+	c #353232",
"o+	c #38473D",
"p+	c #75787C",
"q+	c #878C90",
"r+	c #8D939A",
"s+	c #888F96",
"t+	c #828A91",
"u+	c #98A2AA",
"v+	c #697075",
"w+	c #5B6166",
"x+	c #5C6065",
"y+	c #6A6E73",
"z+	c #6AA290",
"A+	c #6BA391",
"B+	c #82858A",
"C+	c #82888D",
"D+	c #7B8087",
"E+	c #787F85",
"F+	c #798087",
"G+	c #51565A",
"H+	c #52565A",
"I+	c #5B5E63",
"J+	c #65686D",
"K+	c #477357",
"L+	c #7F8388",
"M+	c #7B8185",
"N+	c #74797E",
"O+	c #696E73",
"P+	c #5C6166",
"Q+	c #63676B",
"R+	c #5F6266",
"S+	c #5D6064",
"T+	c #44674D",
"U+	c #6AA08E",
"V+	c #7C8286",
"W+	c #7B8085",
"X+	c #767B80",
"Y+	c #8E959C",
"Z+	c #7C8287",
"`+	c #626569",
" @	c #626468",
".@	c #82868A",
"+@	c #878C91",
"@@	c #8B9196",
"#@	c #8F969A",
"$@	c #8C9399",
"%@	c #6F757A",
"&@	c #64686B",
"*@	c #686C6E",
"=@	c #C4C7D4",
"-@	c #81868A",
";@	c #888D91",
">@	c #8E959A",
",@	c #797E84",
"'@	c #61666A",
")@	c #606468",
"!@	c #686B6F",
"~@	c #6C6E72",
"{@	c #6D6F73",
"]@	c #787D81",
"^@	c #797E82",
"/@	c #83898E",
"(@	c #696E72",
"_@	c #62666A",
":@	c #696C70",
"<@	c #6C6F73",
"[@	c #6A6C70",
"}@	c #66686C",
"|@	c #616366",
"1@	c #5C5E61",
"2@	c #949CA1",
"3@	c #6A6F71",
"4@	c #75797C",
"5@	c #7A7E82",
"6@	c #73777A",
"7@	c #6F7375",
"8@	c #717479",
"9@	c #767A7F",
"0@	c #66696D",
"a@	c #5B5E61",
"b@	c #555758",
"c@	c #575759",
"d@	c #6B6E70",
"e@	c #7D8084",
"f@	c #7A7F83",
"g@	c #6C7072",
"h@	c #6C6E70",
"i@	c #717376",
"j@	c #888B91",
"k@	c #898D92",
"l@	c #65696C",
"m@	c #56585A",
"n@	c #555658",
"o@	c #616163",
"p@	c #6F6F72",
"q@	c #141414",
"r@	c #5A5E61",
"s@	c #6E7174",
"t@	c #7B7E82",
"u@	c #6C6F72",
"v@	c #747679",
"w@	c #818286",
"x@	c #83858A",
"y@	c #989CA1",
"z@	c #9CA1A7",
"A@	c #848A8F",
"B@	c #5A5C5E",
"C@	c #646566",
"D@	c #777779",
"E@	c #828386",
"F@	c #838487",
"G@	c #62676B",
"H@	c #5B5F62",
"I@	c #74777C",
"J@	c #818489",
"K@	c #76797C",
"L@	c #85898C",
"M@	c #909497",
"N@	c #94999D",
"O@	c #A1A7AD",
"P@	c #A4ABB3",
"Q@	c #A1A8B1",
"R@	c #8D949B",
"S@	c #636569",
"T@	c #75767A",
"U@	c #8B8C90",
"V@	c #8F9496",
"W@	c #818487",
"X@	c #131A2D",
"Y@	c #22324F",
"Z@	c #3B5388",
"`@	c #48789D",
" #	c #3B5489",
".#	c #233451",
"+#	c #12192B",
"@#	c #48799E",
"##	c #5D6366",
"$#	c #5E6265",
"%#	c #787C7F",
"&#	c #8B9095",
"*#	c #888D93",
"=#	c #818589",
"-#	c #8D9297",
";#	c #979EA3",
">#	c #9FA7AF",
",#	c #A3ACB4",
"'#	c #A1AAB3",
")#	c #919CA3",
"!#	c #757C82",
"~#	c #82878B",
"{#	c #949BA0",
"]#	c #71777A",
"^#	c #686D71",
"/#	c #7D8386",
"(#	c #8E969B",
"_#	c #8F979B",
":#	c #858B90",
"<#	c #898F93",
"[#	c #90979C",
"}#	c #959DA3",
"|#	c #939CA3",
"1#	c #959FA7",
"2#	c #8F9AA1",
"3#	c #879298",
"4#	c #72797F",
"5#	c #9BA4AA",
"6#	c #8B949A",
"7#	c #7C8383",
"8#	c #E8F2FA",
"9#	c #747A7E",
"0#	c #868D91",
"a#	c #939DA2",
"b#	c #929A9F",
"c#	c #848B90",
"d#	c #80868B",
"  . + @ + # $ % & * = - ; > > , , , > > ; ' ) ! ~ { ] ^ / ( _ : ",
"< [ } | 1 2 3 4 4 5 ; > , 6 7 7 6 6 6 , , > > 8 9 9 0 a b c d e ",
"f g h i j k l m n ; ; , 6 7 6 , > > > 6 6 6 , > > o p q r s t u ",
"v w x y z A B C ; > ; > 6 , ; > > , , > > , 6 6 > > D E F G H I ",
"J K L $ M N O ; > , > ; , ; > , 6 6 6 , > ; ; > , > > P Q R S T ",
"U V W X Y Z ` ; , , ; > , > > ; ; > , 6 , > ; ;  .> > ; * ..+.@.",
"#.$.%.&.*.=.-.> 6 , , , > > > > , , > > , , ; ; ; ;  .;.>.,.'.).",
"!.~.{.].^.= ; , , 6 6 > , , > , , , , > > > > ; > ; ; /.(.&._.:.",
"<.[.}.|.1.2.; , > 6 > 6 6 > > 6 6 > , 6 > > > > ; > > ; 3.4.5.6.",
"7.8.9.0.a.b.; , > , ; 6 , ; > 6 6 > > , > ; > > ; ; > ; c.d.e.f.",
"g.h.i.j.k.l.; > > > ; , >  .; , , > ; > , > ; > ;  .;  .m.n.o.p.",
"q.r.s.G ~ t. .> > > ; , ; ; ; > , >  .; , >  .; ; ;  ._.u.v.w.x.",
"y.z.A.B.C.D. .; > ; > > ; > ; > , ;  .; ; >  .; ; ;  ._.E.F.G.H.",
"I.J.,.K.L.M. .; > ; > ; > > ; ; > ; ; > ; ; ; ; ; ;  .N.O.P.Q.} ",
"R.S.T.U.V.W.X. .; ; ; ; > > > ; ; ; ; > > ; ; ; ;  .Y.Z.`.l. +.+",
"++@+#+$+%+&+*+i. .;  .=+=+-+-+-+-+-+-+-+=+=+ .;  .;+>+,+'+)+!+~+",
"{+]+^+/+(+' ) ! _+ .=+-+:+:+:+<+<+<+-+-+:+=+=+ .& * = - [+}+|+1+",
"2+3+( 4+5+6+7+8 8+ .-+:+:+:+<+9+0+0+<+-+-+:+=+ .8+5 a+b+c+d+e+f+",
"g+h+i+j+a.k+l+8+m+n+:+:+:+<+9+9+<+9+0+<+-+-+-+n+o+8+p+q+r+s+t+u+",
"v+w+A x+y+d 8+o+z+n+:+:+:+<+0+<+9+<+0+<+-+:+=+n+A+o+8+B+C+D+E+F+",
"G+=.H+I+J+]+8+K+z+=+:+:+:+:+<+9+0+0+<+-+-+-+-+=+z+K+8+L+M+N+O+P+",
"X.9.Q+R+S+8+o+A+T+=+:+:+:+:+:+<+<+<+-+:+-+:+=+=+U+A+o+8+V+W+X+X.",
"Y+Z+j+`+ @8+o+K+ . .=+-+-+-+-+-+-+-+-+-+-+=+=+ . .K+o+o+.@+@@@#@",
"$@%@Q+&@*@ .o+K+ .n+ .=@=+ . .n+n+n+ . .=+=@ .n+ .K+o+ .-@;@>@l.",
",@'@)@!@~@{@ . . .n+ .=@ .n+n+n+n+n+n+n+ .=@ .n+ . . .]@^@W+-@/@",
"(@_@:@<@[@}@|@1@ .=+ .2@ .=+=+=+=+=+=+=+ .2@ .=+ .3@4@5@6@^+7@r.",
"A.8@9@B.0@a@b@c@ .=+=+ .=+-+-+-+-+-+-+-+=+ .=+=+ .d@e@f@g@h@i@K.",
"J j@k@W+l@m@n@o@p@q@=+=+-+-+-+-+-+-+-+-+-+-+=+q@r@s@B+t@u@v@w@x@",
"y@z@6.A@:@B@C@D@E@F@ .q@q@q@q@q@q@q@q@q@q@q@ .G@H@I@(+J@K@L@M@N@",
"O@P@Q@R@*+S@T@U@V@W@X@Y@Z@`@ #.#+#.# #@# #.#X@##$#%#&#*#=#-#;#c+",
">#,#'#)#!#s.~#;#{#]#X@X@.# #.#.#X@.#.# #.#X@X@0.^#/#(#_#:#<#[#}#",
"|#1#2#3#+ 4#0 5#6#;+>+X@7#8#7#X@++X@7#8#7#X@*+i.9#0#a#b#c#d#c#$@"};
