/* XPM */
static char * char_xpm[] = {
"32 32 397 2",
"  	c #858C92",
". 	c #7C858A",
"+ 	c #777F85",
"@ 	c #7A8388",
"# 	c #71797E",
"$ 	c #788086",
"% 	c #7F898E",
"& 	c #72797E",
"* 	c #595E61",
"= 	c #5D6164",
"- 	c #261F26",
"; 	c #4D2E40",
"> 	c #684560",
", 	c #888B8F",
"' 	c #7C8285",
") 	c #72777A",
"! 	c #777E81",
"~ 	c #848B8F",
"{ 	c #8C9497",
"] 	c #8F979D",
"^ 	c #878F94",
"/ 	c #7B8287",
"( 	c #7B8186",
"_ 	c #81868B",
": 	c #868D92",
"< 	c #7B7F85",
"[ 	c #777C82",
"} 	c #7E848A",
"| 	c #868F95",
"1 	c #7D858B",
"2 	c #676E73",
"3 	c #5A6064",
"4 	c #575C5F",
"5 	c #896384",
"6 	c #917D89",
"7 	c #858A8E",
"8 	c #8C9398",
"9 	c #8F979C",
"0 	c #899095",
"a 	c #7E8489",
"b 	c #74787E",
"c 	c #75797F",
"d 	c #797D83",
"e 	c #7D8185",
"f 	c #797C81",
"g 	c #868B91",
"h 	c #929BA1",
"i 	c #97A2A9",
"j 	c #818B91",
"k 	c #5C6467",
"l 	c #484C4F",
"m 	c #929B9F",
"n 	c #90989D",
"o 	c #8E979C",
"p 	c #8B9299",
"q 	c #838A8F",
"r 	c #797E83",
"s 	c #75787D",
"t 	c #72747A",
"u 	c #717378",
"v 	c #808388",
"w 	c #8F959C",
"x 	c #98A1A8",
"y 	c #939FA6",
"z 	c #7B838A",
"A 	c #565A5E",
"B 	c #848D91",
"C 	c #899197",
"D 	c #8B949B",
"E 	c #82898E",
"F 	c #777B81",
"G 	c #71767A",
"H 	c #6E7075",
"I 	c #707277",
"J 	c #85878C",
"K 	c #898D93",
"L 	c #83898F",
"M 	c #676F73",
"N 	c #838B90",
"O 	c #838C91",
"P 	c #70777D",
"Q 	c #63686C",
"R 	c #64686C",
"S 	c #67696E",
"T 	c #73757A",
"U 	c #898C92",
"V 	c #83878D",
"W 	c #777C81",
"X 	c #6A7276",
"Y 	c #000000",
"Z 	c #848C91",
"` 	c #798085",
" .	c #62686C",
"..	c #5F6267",
"+.	c #6D6F74",
"@.	c #7F8186",
"#.	c #8F9399",
"$.	c #868B90",
"%.	c #797F83",
"&.	c #6F7477",
"*.	c #5D6265",
"=.	c #7D8488",
"-.	c #696E73",
";.	c #575B5F",
">.	c #595E60",
",.	c #676A6E",
"'.	c #7B7E83",
").	c #8B8E94",
"!.	c #91969C",
"~.	c #838990",
"{.	c #767C80",
"].	c #666B6F",
"^.	c #5A5F62",
"/.	c #907C88",
"(.	c #585C5E",
"_.	c #55585A",
":.	c #606467",
"<.	c #85888C",
"[.	c #94979D",
"}.	c #90979D",
"|.	c #80878C",
"1.	c #70767B",
"2.	c #606669",
"3.	c #5C5E61",
"4.	c #64686A",
"5.	c #6E7376",
"6.	c #7C8084",
"7.	c #8B8E93",
"8.	c #979DA3",
"9.	c #868D93",
"0.	c #757D81",
"a.	c #6B7175",
"b.	c #62686B",
"c.	c #FFD9AD",
"d.	c #6D6E71",
"e.	c #75787A",
"f.	c #777A7E",
"g.	c #7C7F84",
"h.	c #888C91",
"i.	c #92999F",
"j.	c #777D82",
"k.	c #6B7276",
"l.	c #696F73",
"m.	c #6B7174",
"n.	c #FDD7AB",
"o.	c #FED8AC",
"p.	c #7C7D81",
"q.	c #7F8185",
"r.	c #7D7F83",
"s.	c #7E8386",
"t.	c #8A8F94",
"u.	c #8B9298",
"v.	c #72787C",
"w.	c #6E7377",
"x.	c #6D7276",
"y.	c #753E2D",
"z.	c #828487",
"A.	c #878B90",
"B.	c #8E9296",
"C.	c #989DA3",
"D.	c #8D949A",
"E.	c #767D81",
"F.	c #767B7F",
"G.	c #6F7377",
"H.	c #72767A",
"I.	c #80868A",
"J.	c #EBB385",
"K.	c #949494",
"L.	c #818386",
"M.	c #909499",
"N.	c #9B9FA5",
"O.	c #9FA5AC",
"P.	c #8A9297",
"Q.	c #72777C",
"R.	c #6F7277",
"S.	c #707376",
"T.	c #7F8487",
"U.	c #747678",
"V.	c #7C7E82",
"W.	c #8A8E94",
"X.	c #9BA1A8",
"Y.	c #9DA5AC",
"Z.	c #6B7074",
"`.	c #5C5F62",
" +	c #585B5D",
".+	c #6D6F72",
"++	c #7E8286",
"@+	c #82888C",
"#+	c #D48C52",
"$+	c #D3D3D3",
"%+	c #28446C",
"&+	c #71777A",
"*+	c #5F6265",
"=+	c #717476",
"-+	c #83888B",
";+	c #959CA1",
">+	c #98A2A8",
",+	c #70757A",
"'+	c #6A6E72",
")+	c #4F5153",
"!+	c #58595A",
"~+	c #76777A",
"{+	c #85898B",
"]+	c #82898D",
"^+	c #6F7579",
"/+	c #848B91",
"(+	c #5F6467",
"_+	c #535557",
":+	c #737678",
"<+	c #909597",
"[+	c #9DA5AB",
"}+	c #A9B4BD",
"|+	c #676C71",
"1+	c #9DA6AC",
"2+	c #6B6F73",
"3+	c #6F7174",
"4+	c #808386",
"5+	c #83878A",
"6+	c #A1A6AA",
"7+	c #ACB4BB",
"8+	c #ABB8C1",
"9+	c #7D8288",
"0+	c #A6B0B9",
"a+	c #9099A0",
"b+	c #76797D",
"c+	c #7B7F83",
"d+	c #353232",
"e+	c #39463C",
"f+	c #38463C",
"g+	c #6E7176",
"h+	c #8C9095",
"i+	c #99A0A6",
"j+	c #969FA6",
"k+	c #868E95",
"l+	c #9298A0",
"m+	c #99A4AC",
"n+	c #868F96",
"o+	c #70777C",
"p+	c #686C71",
"q+	c #38473D",
"r+	c #65696B",
"s+	c #414444",
"t+	c #15100B",
"u+	c #743D2C",
"v+	c #878C90",
"w+	c #8D939A",
"x+	c #888F96",
"y+	c #828A91",
"z+	c #98A2AA",
"A+	c #697075",
"B+	c #5B6166",
"C+	c #6BA391",
"D+	c #477357",
"E+	c #17130F",
"F+	c #39473D",
"G+	c #82888D",
"H+	c #7B8087",
"I+	c #787F85",
"J+	c #798087",
"K+	c #51565A",
"L+	c #4E5356",
"M+	c #52565A",
"N+	c #932400",
"O+	c #61666B",
"P+	c #949CA1",
"Q+	c #7B8185",
"R+	c #74797E",
"S+	c #5C6166",
"T+	c #71777B",
"U+	c #3B493E",
"V+	c #E76408",
"W+	c #552E21",
"X+	c #7B8085",
"Y+	c #767B80",
"Z+	c #8E959C",
"`+	c #7C8287",
" @	c #3A483D",
".@	c #9CCCAB",
"+@	c #878C91",
"@@	c #8B9196",
"#@	c #8F969A",
"$@	c #8C9399",
"%@	c #6F757A",
"&@	c #63676B",
"*@	c #6BA390",
"=@	c #81868A",
"-@	c #888D91",
";@	c #8E959A",
">@	c #797E84",
",@	c #61666A",
"'@	c #606468",
")@	c #6BA290",
"!@	c #797E82",
"~@	c #83898E",
"{@	c #696E72",
"]@	c #62666A",
"^@	c #696C70",
"/@	c #6C6F73",
"(@	c #1A211C",
"_@	c #233451",
":@	c #131A2D",
"<@	c #7A7E82",
"[@	c #73777A",
"}@	c #6F7375",
"|@	c #717479",
"1@	c #767A7F",
"2@	c #66696D",
"3@	c #606163",
"4@	c #3A617F",
"5@	c #3B5489",
"6@	c #98A0A6",
"7@	c #7D8084",
"8@	c #7A7F83",
"9@	c #6C7072",
"0@	c #6C6E70",
"a@	c #717376",
"b@	c #888B91",
"c@	c #898D92",
"d@	c #65696C",
"e@	c #56585A",
"f@	c #555658",
"g@	c #616163",
"h@	c #6F6F72",
"i@	c #406B8C",
"j@	c #929AA1",
"k@	c #5A5E61",
"l@	c #6E7174",
"m@	c #82858A",
"n@	c #7B7E82",
"o@	c #6C6F72",
"p@	c #747679",
"q@	c #818286",
"r@	c #83858A",
"s@	c #989CA1",
"t@	c #9CA1A7",
"u@	c #848A8F",
"v@	c #5A5C5E",
"w@	c #646566",
"x@	c #777779",
"y@	c #828386",
"z@	c #80888D",
"A@	c #62676B",
"B@	c #5B5F62",
"C@	c #74777C",
"D@	c #818489",
"E@	c #76797C",
"F@	c #85898C",
"G@	c #909497",
"H@	c #94999D",
"I@	c #A1A7AD",
"J@	c #A4ABB3",
"K@	c #A1A8B1",
"L@	c #8D949B",
"M@	c #636569",
"N@	c #75767A",
"O@	c #8B8C90",
"P@	c #8F9496",
"Q@	c #48799E",
"R@	c #737B7F",
"S@	c #5D6366",
"T@	c #5E6265",
"U@	c #787C7F",
"V@	c #8B9095",
"W@	c #888D93",
"X@	c #818589",
"Y@	c #8D9297",
"Z@	c #979EA3",
"`@	c #9FA7AF",
" #	c #A3ACB4",
".#	c #A1AAB3",
"+#	c #919CA3",
"@#	c #757C82",
"##	c #82878B",
"$#	c #949BA0",
"%#	c #686D71",
"&#	c #7D8386",
"*#	c #8E969B",
"=#	c #8F979B",
"-#	c #858B90",
";#	c #898F93",
">#	c #90979C",
",#	c #959DA3",
"'#	c #939CA3",
")#	c #959FA7",
"!#	c #8F9AA1",
"~#	c #879298",
"{#	c #72797F",
"]#	c #9BA4AA",
"^#	c #8B949A",
"/#	c #7C8383",
"(#	c #E8F2FA",
"_#	c #747A7E",
":#	c #868D91",
"<#	c #939DA2",
"[#	c #929A9F",
"}#	c #848B90",
"|#	c #80868B",
"  . + @ + # $ % & * = - ; ; > > > ; ; - , ' ) ! ~ { ] ^ / ( _ : ",
"< [ } | 1 2 3 4 4 ; ; > > 5 5 5 6 6 5 > ; - 7 8 9 9 0 a b c d e ",
"f g h i j k l ; ; > 5 5 5 ; ; > > 5 6 5 > - - m n o p q r s t u ",
"v w x y z A ; > 5 5 > > ; - 5 5 ; ; > 5 ; - ; - B C D E F G H I ",
"J K L $ M ; > > ; - - > > ; - > 6 6 5 > - > > ; - N O P Q R S T ",
"U V W X - > ; - Y 5 5 5 > ; ; ; ; ; - > ; - ; > - Z `  .* ..+.@.",
"#.$.%.&.*.- - ; - Y - ; ; > 5 5 > Y ; ; > > - ; - =.-.;.>.,.'.).",
"!.~.{.].^.- ; > ; - > 6 /.5 > - Y ; > Y ; 5 > - ; - (._.:.&.<.[.",
"}.|.1.2.- ; > ; - ; - - - Y Y ; ; > Y Y - ; 5 ; - - 3.4.5.6.7.8.",
"9.0.a.b.- > ; - ; > > - ; - ; > > Y c.c.Y - > ; - - d.e.f.g.h.i.",
"j.k.l.m.Y - Y ; > 5 - ; Y c.> 5 - n.o.c.Y ; - ; - Y p.q.r.s.t.u.",
"v.w.x.G ~ Y Y ; 5 - y.Y y.c.5 - c.c.y.y.y.- - - - Y z.<.A.B.C.D.",
"E.F.G.H.I.Y J.; - J.Y Y Y J.- J.J.J.Y Y K.- ; Y J.Y L.<.M.N.O.P.",
"Q.R.,.S.T.Y J.- Y J.K.Y Y J.J.J.J.J.Y Y K.Y ; Y J.Y U.V.W.X.Y.} ",
"Z.`. +.+++@+Y Y #+J.$+%+%+J.J.J.J.J.%+%+$+J.- Y Y &+*+=+-+;+>+,+",
"'+)+!+~+{+]+^+Y y.J.$+%+%+c.c.c.c.c.%+%+$+J.y.Y /+(+_+:+<+[+}+|+",
"1+2+3+4+, ' &.Y Y #+J.c.c.c.c.c.c.c.c.c.J.#+Y Y Y * = 5+6+7+8+9+",
"0+a+( b+c+d+d+Y e+y.#+J.c.c.c.c.c.c.c.J.#+y.f+Y d+d+g+h+i+j+k+l+",
"m+n+o+p+q+Y r+s+t+q+Y y.#+#+J.J.J.#+#+u+Y e+Y s+r+Y q+v+w+x+y+z+",
"A+B+A q+C+D+E+r+s+Y F+D+Y Y y.y.y.Y Y D+q+Y s+r+Y D+C+q+G+H+I+J+",
"K+L+M+q+C+D+C+Y s+Y q+C+C+N+O+P+O+N+C+C+q+Y s+Y C+D+C+q+Q+R+-.S+",
"T+a.q+D+D+q+q+Y Y Y U+D+C+C+V+O+V+C+C+D+q+Y Y W+q+q+D+D+q+X+Y+T+",
"Z+`+q+q+q+#+#+y.y.Y  @C+D+C+.@V+.@C+D+C+q+Y y.y.#+#+q+q+q++@@@#@",
"$@%@&@Y #+c.c.#+y.Y  @D+C+C+C+C+C+*@C+D+q+Y y.#+c.c.#+Y =@-@;@;+",
">@,@'@Y #+c.c.#+y.q+D+)@q+D+C+C+C+D+q+C+D+f+y.#+c.c.#+Y !@X+=@~@",
"{@]@^@/@Y J.J.#+Y (@q+_@_@:@q+D+q+:@_@_@q+q+Y #+J.J.Y <@[@3+}@w.",
"G.|@1@H.2@Y Y Y 3@:@_@4@5@_@_@_@_@_@5@4@_@:@6@Y Y Y 7@8@9@0@a@S.",
"J b@c@X+d@e@f@g@h@:@_@5@i@_@_@:@_@_@i@5@_@:@j@,+k@l@m@n@o@p@q@r@",
"s@t@8.u@^@v@w@x@y@:@:@_@5@_@:@:@:@_@5@_@:@:@z@A@B@C@, D@E@F@G@H@",
"I@J@K@L@^+M@N@O@P@:@_@5@Q@5@_@:@_@5@Q@5@_@:@R@S@T@U@V@W@X@Y@Z@i+",
"`@ #.#+#@#x.##Z@$#:@:@_@5@_@_@:@_@_@5@_@:@:@T+b.%#&#*#=#-#;#>#,#",
"'#)#!#~#+ {#0 ]#^#(+:@/#(#/#:@|+:@/#(#/#:@]+^+l._#:#<#[#}#|#}#$@"};
