/* XPM */
static char * charr_xpm[] = {
"32 32 413 2",
"  	c #858C92",
". 	c #7C858A",
"+ 	c #777F85",
"@ 	c #7A8388",
"# 	c #71797E",
"$ 	c #788086",
"% 	c #7F898E",
"& 	c #72797E",
"* 	c #595E61",
"= 	c #5D6164",
"- 	c #83878A",
"; 	c #261F26",
"> 	c #4D2E40",
", 	c #72777A",
"' 	c #777E81",
") 	c #848B8F",
"! 	c #8C9497",
"~ 	c #8F979D",
"{ 	c #878F94",
"] 	c #7B8287",
"^ 	c #7B8186",
"/ 	c #81868B",
"( 	c #868D92",
"_ 	c #7B7F85",
": 	c #777C82",
"< 	c #7E848A",
"[ 	c #868F95",
"} 	c #7D858B",
"| 	c #676E73",
"1 	c #5A6064",
"2 	c #575C5F",
"3 	c #5C6063",
"4 	c #684560",
"5 	c #917D89",
"6 	c #896384",
"7 	c #8F979C",
"8 	c #899095",
"9 	c #7E8489",
"0 	c #74787E",
"a 	c #75797F",
"b 	c #797D83",
"c 	c #7D8185",
"d 	c #797C81",
"e 	c #868B91",
"f 	c #929BA1",
"g 	c #97A2A9",
"h 	c #818B91",
"i 	c #5C6467",
"j 	c #484C4F",
"k 	c #474B4D",
"l 	c #545759",
"m 	c #838A8F",
"n 	c #797E83",
"o 	c #75787D",
"p 	c #72747A",
"q 	c #717378",
"r 	c #808388",
"s 	c #8F959C",
"t 	c #98A1A8",
"u 	c #939FA6",
"v 	c #7B838A",
"w 	c #565A5E",
"x 	c #45474A",
"y 	c #4A4D4F",
"z 	c #777B81",
"A 	c #71767A",
"B 	c #6E7075",
"C 	c #707277",
"D 	c #85878C",
"E 	c #898D93",
"F 	c #83898F",
"G 	c #676F73",
"H 	c #4B5053",
"I 	c #3F4244",
"J 	c #4E5053",
"K 	c #000000",
"L 	c #64686C",
"M 	c #67696E",
"N 	c #73757A",
"O 	c #898C92",
"P 	c #83878D",
"Q 	c #777C81",
"R 	c #6A7276",
"S 	c #5C6266",
"T 	c #474B4E",
"U 	c #414446",
"V 	c #5F6267",
"W 	c #6D6F74",
"X 	c #7F8186",
"Y 	c #8F9399",
"Z 	c #868B90",
"` 	c #797F83",
" .	c #6F7477",
"..	c #5D6265",
"+.	c #4E5356",
"@.	c #54575A",
"#.	c #595E60",
"$.	c #676A6E",
"%.	c #7B7E83",
"&.	c #8B8E94",
"*.	c #91969C",
"=.	c #838990",
"-.	c #767C80",
";.	c #666B6F",
">.	c #5A5F62",
",.	c #6F7376",
"'.	c #85888C",
").	c #94979D",
"!.	c #90979D",
"~.	c #80878C",
"{.	c #70767B",
"].	c #606669",
"^.	c #606567",
"/.	c #727679",
"(.	c #878B8F",
"_.	c #7C8084",
":.	c #8B8E93",
"<.	c #979DA3",
"[.	c #868D93",
"}.	c #757D81",
"|.	c #6B7175",
"1.	c #62686B",
"2.	c #717579",
"3.	c #878D90",
"4.	c #949A9F",
"5.	c #141414",
"6.	c #7C7F84",
"7.	c #888C91",
"8.	c #92999F",
"9.	c #777D82",
"0.	c #6B7276",
"a.	c #696F73",
"b.	c #6B7174",
"c.	c #7F858A",
"d.	c #959CA1",
"e.	c #98A0A6",
"f.	c #7F8185",
"g.	c #7E8386",
"h.	c #8A8F94",
"i.	c #8B9298",
"j.	c #72787C",
"k.	c #6E7377",
"l.	c #6D7276",
"m.	c #959DA2",
"n.	c #929AA1",
"o.	c #949494",
"p.	c #828487",
"q.	c #878B90",
"r.	c #8E9296",
"s.	c #989DA3",
"t.	c #8D949A",
"u.	c #767D81",
"v.	c #767B7F",
"w.	c #6F7377",
"x.	c #72767A",
"y.	c #80868A",
"z.	c #8B9297",
"A.	c #80888D",
"B.	c #62676B",
"C.	c #EBB385",
"D.	c #D48C52",
"E.	c #D3D3D3",
"F.	c #818386",
"G.	c #909499",
"H.	c #9B9FA5",
"I.	c #9FA5AC",
"J.	c #8A9297",
"K.	c #72777C",
"L.	c #6F7277",
"M.	c #707376",
"N.	c #7F8487",
"O.	c #838A8E",
"P.	c #737B7F",
"Q.	c #5D6366",
"R.	c #FFD9AD",
"S.	c #28446C",
"T.	c #747678",
"U.	c #7C7E82",
"V.	c #8A8E94",
"W.	c #9BA1A8",
"X.	c #9DA5AC",
"Y.	c #6B7074",
"Z.	c #5C5F62",
"`.	c #585B5D",
" +	c #6D6F72",
".+	c #7E8286",
"++	c #82888C",
"@+	c #71777B",
"#+	c #686D71",
"$+	c #5F6265",
"%+	c #717476",
"&+	c #83888B",
"*+	c #98A2A8",
"=+	c #70757A",
"-+	c #6A6E72",
";+	c #4F5153",
">+	c #58595A",
",+	c #76777A",
"'+	c #85898B",
")+	c #82898D",
"!+	c #6F7579",
"~+	c #747A7E",
"{+	c #343638",
"]+	c #535557",
"^+	c #737678",
"/+	c #909597",
"(+	c #9DA5AB",
"_+	c #A9B4BD",
":+	c #676C71",
"<+	c #9DA6AC",
"[+	c #6B6F73",
"}+	c #6F7174",
"|+	c #808386",
"1+	c #888B8F",
"2+	c #7C8285",
"3+	c #414444",
"4+	c #353232",
"5+	c #161414",
"6+	c #753E2D",
"7+	c #A1A6AA",
"8+	c #ACB4BB",
"9+	c #ABB8C1",
"0+	c #7D8288",
"a+	c #A6B0B9",
"b+	c #9099A0",
"c+	c #76797D",
"d+	c #7B7F83",
"e+	c #65696B",
"f+	c #6E7176",
"g+	c #8C9095",
"h+	c #99A0A6",
"i+	c #969FA6",
"j+	c #868E95",
"k+	c #9298A0",
"l+	c #99A4AC",
"m+	c #868F96",
"n+	c #70777C",
"o+	c #686C71",
"p+	c #929799",
"q+	c #583125",
"r+	c #636669",
"s+	c #75787C",
"t+	c #878C90",
"u+	c #8D939A",
"v+	c #888F96",
"w+	c #828A91",
"x+	c #98A2AA",
"y+	c #697075",
"z+	c #5B6166",
"A+	c #383626",
"B+	c #416A50",
"C+	c #38473D",
"D+	c #5D5F62",
"E+	c #6C6E72",
"F+	c #777B7F",
"G+	c #82858A",
"H+	c #82888D",
"I+	c #7B8087",
"J+	c #787F85",
"K+	c #798087",
"L+	c #51565A",
"M+	c #52565A",
"N+	c #477357",
"O+	c #6BA391",
"P+	c #467155",
"Q+	c #1A211C",
"R+	c #686A6D",
"S+	c #787B7E",
"T+	c #7E8185",
"U+	c #7F8388",
"V+	c #7B8185",
"W+	c #74797E",
"X+	c #696E73",
"Y+	c #5C6166",
"Z+	c #63676B",
"`+	c #080805",
" @	c #69A08E",
".@	c #595C5E",
"+@	c #797C7E",
"@@	c #84888C",
"#@	c #82888B",
"$@	c #7E8487",
"%@	c #7C8286",
"&@	c #7B8085",
"*@	c #767B80",
"=@	c #8E959C",
"-@	c #7C8287",
";@	c #12110C",
">@	c #1B1D1D",
",@	c #6F7275",
"'@	c #878C8E",
")@	c #898F92",
"!@	c #808589",
"~@	c #82868A",
"{@	c #878C91",
"]@	c #8B9196",
"^@	c #8F969A",
"/@	c #8C9399",
"(@	c #6F757A",
"_@	c #C4C7D4",
":@	c #EAB284",
"<@	c #AB6A42",
"[@	c #85898C",
"}@	c #8D9398",
"|@	c #797F82",
"1@	c #7A7E82",
"2@	c #81868A",
"3@	c #888D91",
"4@	c #8E959A",
"5@	c #797E84",
"6@	c #61666A",
"7@	c #949CA1",
"8@	c #38463C",
"9@	c #FDD7AB",
"0@	c #233451",
"a@	c #131A2D",
"b@	c #8E9498",
"c@	c #73787B",
"d@	c #787D81",
"e@	c #797E82",
"f@	c #83898E",
"g@	c #696E72",
"h@	c #62666A",
"i@	c #696C70",
"j@	c #3B5489",
"k@	c #899094",
"l@	c #707679",
"m@	c #6A6F71",
"n@	c #75797C",
"o@	c #73777A",
"p@	c #6F7375",
"q@	c #717479",
"r@	c #767A7F",
"s@	c #723D2C",
"t@	c #406B8C",
"u@	c #616669",
"v@	c #6B6E70",
"w@	c #7D8084",
"x@	c #7A7F83",
"y@	c #6C7072",
"z@	c #6C6E70",
"A@	c #717376",
"B@	c #888B91",
"C@	c #898D92",
"D@	c #65696C",
"E@	c #131A2C",
"F@	c #3A617F",
"G@	c #5A5E61",
"H@	c #6E7174",
"I@	c #7B7E82",
"J@	c #6C6F72",
"K@	c #747679",
"L@	c #818286",
"M@	c #83858A",
"N@	c #989CA1",
"O@	c #9CA1A7",
"P@	c #848A8F",
"Q@	c #5A5C5E",
"R@	c #528AB2",
"S@	c #5B5F62",
"T@	c #74777C",
"U@	c #818489",
"V@	c #76797C",
"W@	c #909497",
"X@	c #94999D",
"Y@	c #A1A7AD",
"Z@	c #A4ABB3",
"`@	c #A1A8B1",
" #	c #8D949B",
".#	c #636569",
"+#	c #75767A",
"@#	c #8B8C90",
"##	c #8F9496",
"$#	c #818487",
"%#	c #5E6265",
"&#	c #787C7F",
"*#	c #8B9095",
"=#	c #888D93",
"-#	c #818589",
";#	c #8D9297",
">#	c #979EA3",
",#	c #9FA7AF",
"'#	c #A3ACB4",
")#	c #A1AAB3",
"!#	c #919CA3",
"~#	c #757C82",
"{#	c #82878B",
"]#	c #949BA0",
"^#	c #71777A",
"/#	c #7D8386",
"(#	c #8E969B",
"_#	c #8F979B",
":#	c #858B90",
"<#	c #898F93",
"[#	c #90979C",
"}#	c #959DA3",
"|#	c #939CA3",
"1#	c #959FA7",
"2#	c #8F9AA1",
"3#	c #879298",
"4#	c #72797F",
"5#	c #9BA4AA",
"6#	c #8B949A",
"7#	c #5F6467",
"8#	c #91989E",
"9#	c #504C4C",
"0#	c #7C8383",
"a#	c #E8F2FA",
"b#	c #868D91",
"c#	c #939DA2",
"d#	c #929A9F",
"e#	c #848B90",
"f#	c #80868B",
"  . + @ + # $ % & * = - ; ; ; > > > > > ; ; , ' ) ! ~ { ] ^ / ( ",
"_ : < [ } | 1 2 2 3 ; ; > 4 5 5 6 4 4 ; ; > > ; ; 7 8 9 0 a b c ",
"d e f g h i j k l ; > 4 6 5 6 6 4 4 > > > ; > 4 4 > ; m n o p q ",
"r s t u v w x y ; > 6 6 4 4 4 6 6 6 6 6 4 4 > ; > > 4 > z A B C ",
"D E F $ G H I J ; 6 4 > 4 4 6 5 5 6 4 4 6 4 > ; ; > ; K ; L M N ",
"O P Q R S T U ; > 4 > 4 4 4 5 6 4 > > > > > 4 > ; ; > ; * V W X ",
"Y Z `  ...+.@.; > > 4 4 > 6 4 > ; 6 5 5 5 6 4 ; ; ; 4 ; #.$.%.&.",
"*.=.-.;.>.= ,.> > ; 4 > 4 4 > ; ; ; 4 6 4 > K ; > ; > 4 ;  .'.).",
"!.~.{.].^./.(.> ; ; > > 4 ; > > ; ; ; ; K K ; > ; K ; 4 ; _.:.<.",
"[.}.|.1.2.3.4.> ; 5.; > ; > > 4 ; > 4 > ; > > ; > ; K ; ; 6.7.8.",
"9.0.a.b.c.d.e.; 5.; 5.; ; > 4 > > 6 4 ; > ; 5.; 4 > K f.K g.h.i.",
"j.k.l.A ) m.n.5.; > ; ; ; ; 4 ; 4 6 ; o.K K ; ; > ; p.'.q.r.s.t.",
"u.v.w.x.y.z.A.B.; > > ; ; C.> ; 6 ; D.E.K K C.> ; K F.'.G.H.I.J.",
"K.L.$.M.N.O.P.Q.5.; > 5.; C.> ; ; R.C.E.S.S.C.; C.K T.U.V.W.X.< ",
"Y.Z.`. +.+++@+1.#+5.; 5.; 5.5.; R.R.R.E.S.S.R.R.R.K $+%+&+d.*+=+",
"-+;+>+,+'+)+!+a.~+{+5.5.; ; 5.D.R.R.R.R.R.R.R.R.R.K ]+^+/+(+_+:+",
"<+[+}+|+1+2+3+3+3+4+5.5.; 5.5+6+C.R.R.R.R.R.R.R.D.K = - 7+8+9+0+",
"a+b+^ c+d+3+e+e+e+3+4+5.4+5.5.6+6+C.R.R.R.R.C.D.K 3 f+g+h+i+j+k+",
"l+m+n+o+3+e+p+p+e+3+3+3+e+e+e+3+6+q+5.6+6+6+K K l r+s+t+u+v+w+x+",
"y+z+w 3+e+p+e+4+4+4+5.A+K K 3+e+e+K B+C+6+K x y D+E+F+G+H+I+J+K+",
"L++.M+3+e+e+3+5.5.5.A+K N+O+P+K 3+e+K O+N+Q+I J R+S+T+U+V+W+X+Y+",
"@+|.Z+4+3+3+4+3+3+5.`+C+O+O+C+Q+K 3+e+ @N+Q+U .@+@@@#@$@%@&@*@@+",
"=@-@o+4+3+4+3+e+4+5.;@N+N+O+Q+Q+6+K >@K N+Q+@.,@'@)@!@V+~@{@]@^@",
"/@(@4+_@4+3+e+e+e+4+5.N+O+O+C+N+C.:@<@K N+Q+,.[@}@O.|@1@2@3@4@d.",
"5@6@4+7@3+3+e+e+3+3+5.8@N+O+O+O+9@R.C.K 0@a@(.b@) -.c@d@e@&@2@f@",
"g@h@i@5.3+e+e+e+e+3+4+5.C+N+N+O+R.C.D.K j@a@4.k@l@m@n@1@o@}+p@k.",
"w.q@r@x.5.3+e+e+3+3+4+5.Q+Q+Q+Q+s@K K 0@t@a@e.< u@v@w@x@y@z@A@M.",
"D B@C@&@D@5.3+3+4+4+4+5.E@a@a@0@0@0@j@F@j@a@n.=+G@H@G+I@J@K@L@M@",
"N@O@<.P@i@Q@5.5.5.5.5.'.G.a@0@0@j@j@F@R@0@a@A.B.S@T@1+U@V@[@W@X@",
"Y@Z@`@ #!+.#+#@###$#T.U.V.a@a@0@0@j@R@a@a@O.P.Q.%#&#*#=#-#;#>#h+",
",#'#)#!#~#l.{#>#]#^#$+%+&+d.a@a@0@F@F@j@a@++@+1.#+/#(#_#:#<#[#}#",
"|#1#2#3#+ 4#8 5#6#7#]+^+/+8#a@9#0#0#a#a#a@)+!+a.~+b#c#d#e#f#e#/@"};
