/* XPM */
static char * charl_xpm[] = {
"32 32 420 2",
"  	c #858C92",
". 	c #7C858A",
"+ 	c #777F85",
"@ 	c #7A8388",
"# 	c #71797E",
"$ 	c #788086",
"% 	c #7F898E",
"& 	c #72797E",
"* 	c #595E61",
"= 	c #4D2E40",
"- 	c #684560",
"; 	c #261F26",
"> 	c #808386",
", 	c #888B8F",
"' 	c #7C8285",
") 	c #72777A",
"! 	c #777E81",
"~ 	c #848B8F",
"{ 	c #8C9497",
"] 	c #8F979D",
"^ 	c #878F94",
"/ 	c #7B8287",
"( 	c #7B8186",
"_ 	c #81868B",
": 	c #868D92",
"< 	c #7B7F85",
"[ 	c #777C82",
"} 	c #7E848A",
"| 	c #868F95",
"1 	c #7D858B",
"2 	c #676E73",
"3 	c #5A6064",
"4 	c #575C5F",
"5 	c #896384",
"6 	c #7E8285",
"7 	c #858A8E",
"8 	c #8C9398",
"9 	c #8F979C",
"0 	c #899095",
"a 	c #7E8489",
"b 	c #74787E",
"c 	c #75797F",
"d 	c #797D83",
"e 	c #7D8185",
"f 	c #797C81",
"g 	c #868B91",
"h 	c #929BA1",
"i 	c #97A2A9",
"j 	c #818B91",
"k 	c #5C6467",
"l 	c #8B9296",
"m 	c #929B9F",
"n 	c #90989D",
"o 	c #8E979C",
"p 	c #8B9299",
"q 	c #838A8F",
"r 	c #797E83",
"s 	c #75787D",
"t 	c #72747A",
"u 	c #717378",
"v 	c #808388",
"w 	c #8F959C",
"x 	c #98A1A8",
"y 	c #939FA6",
"z 	c #917D89",
"A 	c #868F94",
"B 	c #848D91",
"C 	c #899197",
"D 	c #8B949B",
"E 	c #82898E",
"F 	c #777B81",
"G 	c #71767A",
"H 	c #6E7075",
"I 	c #707277",
"J 	c #85878C",
"K 	c #898D93",
"L 	c #83898F",
"M 	c #798085",
"N 	c #838B90",
"O 	c #838C91",
"P 	c #70777D",
"Q 	c #63686C",
"R 	c #64686C",
"S 	c #67696E",
"T 	c #73757A",
"U 	c #898C92",
"V 	c #83878D",
"W 	c #7D8287",
"X 	c #848C91",
"Y 	c #62686C",
"Z 	c #5F6267",
"` 	c #6D6F74",
" .	c #7F8186",
"..	c #8F9399",
"+.	c #868B90",
"@.	c #797F83",
"#.	c #000000",
"$.	c #7D8488",
"%.	c #696E73",
"&.	c #575B5F",
"*.	c #595E60",
"=.	c #676A6E",
"-.	c #7B7E83",
";.	c #8B8E94",
">.	c #91969C",
",.	c #838990",
"'.	c #767C80",
").	c #666B6F",
"!.	c #67445F",
"~.	c #676B6E",
"{.	c #585C5E",
"].	c #55585A",
"^.	c #606467",
"/.	c #6F7477",
"(.	c #85888C",
"_.	c #94979D",
":.	c #90979D",
"<.	c #80878C",
"[.	c #70767B",
"}.	c #FFD9AD",
"|.	c #141414",
"1.	c #5B5C5F",
"2.	c #5C5E61",
"3.	c #64686A",
"4.	c #6E7376",
"5.	c #7C8084",
"6.	c #8B8E93",
"7.	c #979DA3",
"8.	c #868D93",
"9.	c #757D81",
"0.	c #6B7175",
"a.	c #626466",
"b.	c #6D6E71",
"c.	c #75787A",
"d.	c #777A7E",
"e.	c #7C7F84",
"f.	c #888C91",
"g.	c #92999F",
"h.	c #777D82",
"i.	c #6B7276",
"j.	c #696F73",
"k.	c #6B7174",
"l.	c #753E2D",
"m.	c #D48C52",
"n.	c #EBB385",
"o.	c #707072",
"p.	c #7C7D81",
"q.	c #7F8185",
"r.	c #7D7F83",
"s.	c #7E8386",
"t.	c #8A8F94",
"u.	c #8B9298",
"v.	c #72787C",
"w.	c #6E7377",
"x.	c #6D7276",
"y.	c #959DA2",
"z.	c #949494",
"A.	c #6F6F72",
"B.	c #7B7C80",
"C.	c #828487",
"D.	c #878B90",
"E.	c #8E9296",
"F.	c #989DA3",
"G.	c #8D949A",
"H.	c #767D81",
"I.	c #767B7F",
"J.	c #6F7377",
"K.	c #72767A",
"L.	c #80868A",
"M.	c #8B9297",
"N.	c #D3D3D3",
"O.	c #828386",
"P.	c #838487",
"Q.	c #818386",
"R.	c #909499",
"S.	c #9B9FA5",
"T.	c #9FA5AC",
"U.	c #8A9297",
"V.	c #72777C",
"W.	c #6F7277",
"X.	c #707376",
"Y.	c #7F8487",
"Z.	c #838A8E",
"`.	c #28446C",
" +	c #8B8C90",
".+	c #8F9496",
"++	c #818487",
"@+	c #747678",
"#+	c #7C7E82",
"$+	c #8A8E94",
"%+	c #9BA1A8",
"&+	c #9DA5AC",
"*+	c #6B7074",
"=+	c #5C5F62",
"-+	c #585B5D",
";+	c #6D6F72",
">+	c #7E8286",
",+	c #82888C",
"'+	c #979EA3",
")+	c #949BA0",
"!+	c #71777A",
"~+	c #5F6265",
"{+	c #717476",
"]+	c #83888B",
"^+	c #959CA1",
"/+	c #98A2A8",
"(+	c #70757A",
"_+	c #6A6E72",
":+	c #4F5153",
"<+	c #58595A",
"[+	c #76777A",
"}+	c #85898B",
"|+	c #82898D",
"1+	c #55595C",
"2+	c #9BA4AA",
"3+	c #8B949A",
"4+	c #5F6467",
"5+	c #535557",
"6+	c #737678",
"7+	c #909597",
"8+	c #9DA5AB",
"9+	c #A9B4BD",
"0+	c #676C71",
"a+	c #9DA6AC",
"b+	c #6B6F73",
"c+	c #6F7174",
"d+	c #151414",
"e+	c #353232",
"f+	c #414444",
"g+	c #5D6164",
"h+	c #83878A",
"i+	c #A1A6AA",
"j+	c #ACB4BB",
"k+	c #ABB8C1",
"l+	c #7D8288",
"m+	c #A6B0B9",
"n+	c #9099A0",
"o+	c #76797D",
"p+	c #7B7F83",
"q+	c #65696B",
"r+	c #8C9095",
"s+	c #99A0A6",
"t+	c #969FA6",
"u+	c #868E95",
"v+	c #9298A0",
"w+	c #99A4AC",
"x+	c #868F96",
"y+	c #70777C",
"z+	c #686C71",
"A+	c #717579",
"B+	c #7F8488",
"C+	c #929799",
"D+	c #8D939A",
"E+	c #888F96",
"F+	c #828A91",
"G+	c #98A2AA",
"H+	c #697075",
"I+	c #5B6166",
"J+	c #565A5E",
"K+	c #5C6065",
"L+	c #6A6E73",
"M+	c #38473D",
"N+	c #446E53",
"O+	c #383626",
"P+	c #7B8087",
"Q+	c #787F85",
"R+	c #798087",
"S+	c #51565A",
"T+	c #4E5356",
"U+	c #52565A",
"V+	c #5B5E63",
"W+	c #65686D",
"X+	c #6F7478",
"Y+	c #73787D",
"Z+	c #1A211C",
"`+	c #477357",
" @	c #6BA391",
".@	c #467256",
"+@	c #74797E",
"@@	c #5C6166",
"#@	c #71777B",
"$@	c #63676B",
"%@	c #5F6266",
"&@	c #5D6064",
"*@	c #626669",
"=@	c #6E7275",
"-@	c #6AA18F",
";@	c #040402",
">@	c #7B8085",
",@	c #767B80",
"'@	c #8E959C",
")@	c #7C8287",
"!@	c #626569",
"~@	c #626468",
"{@	c #626568",
"]@	c #6A6D71",
"^@	c #0F1010",
"/@	c #090906",
"(@	c #878C91",
"_@	c #8B9196",
":@	c #8F969A",
"<@	c #8C9399",
"[@	c #6F757A",
"}@	c #64686B",
"|@	c #686C6E",
"1@	c #6B6D70",
"2@	c #717376",
"3@	c #74787B",
"4@	c #BC7949",
"5@	c #EAB284",
"6@	c #C4C7D4",
"7@	c #8E959A",
"8@	c #797E84",
"9@	c #61666A",
"0@	c #606468",
"a@	c #686B6F",
"b@	c #6C6E72",
"c@	c #6D6F73",
"d@	c #6C6E71",
"e@	c #686B6E",
"f@	c #5F6365",
"g@	c #131A2D",
"h@	c #233451",
"i@	c #FED8AC",
"j@	c #38463C",
"k@	c #949CA1",
"l@	c #81868A",
"m@	c #83898E",
"n@	c #696E72",
"o@	c #62666A",
"p@	c #696C70",
"q@	c #6C6F73",
"r@	c #6A6C70",
"s@	c #66686C",
"t@	c #616366",
"u@	c #5C5E60",
"v@	c #3B5489",
"w@	c #6F7375",
"x@	c #717479",
"y@	c #767A7F",
"z@	c #66696D",
"A@	c #5B5E61",
"B@	c #555758",
"C@	c #575759",
"D@	c #606163",
"E@	c #406B8C",
"F@	c #733D2C",
"G@	c #6C7072",
"H@	c #6C6E70",
"I@	c #888B91",
"J@	c #898D92",
"K@	c #65696C",
"L@	c #56585A",
"M@	c #555658",
"N@	c #616163",
"O@	c #3A617F",
"P@	c #131A2C",
"Q@	c #7B7E82",
"R@	c #6C6F72",
"S@	c #747679",
"T@	c #818286",
"U@	c #83858A",
"V@	c #989CA1",
"W@	c #9CA1A7",
"X@	c #848A8F",
"Y@	c #5A5C5E",
"Z@	c #646566",
"`@	c #777779",
" #	c #528AB2",
".#	c #818489",
"+#	c #76797C",
"@#	c #85898C",
"##	c #909497",
"$#	c #94999D",
"%#	c #A1A7AD",
"&#	c #A4ABB3",
"*#	c #A1A8B1",
"=#	c #8D949B",
"-#	c #6F7579",
";#	c #636569",
">#	c #75767A",
",#	c #737B7F",
"'#	c #5D6366",
")#	c #5E6265",
"!#	c #787C7F",
"~#	c #8B9095",
"{#	c #888D93",
"]#	c #818589",
"^#	c #8D9297",
"/#	c #9FA7AF",
"(#	c #A3ACB4",
"_#	c #A1AAB3",
":#	c #919CA3",
"<#	c #757C82",
"[#	c #82878B",
"}#	c #575A5C",
"|#	c #62686B",
"1#	c #686D71",
"2#	c #7D8386",
"3#	c #8E969B",
"4#	c #8F979B",
"5#	c #858B90",
"6#	c #898F93",
"7#	c #90979C",
"8#	c #959DA3",
"9#	c #939CA3",
"0#	c #959FA7",
"a#	c #8F9AA1",
"b#	c #879298",
"c#	c #72797F",
"d#	c #E8F2FA",
"e#	c #7C8383",
"f#	c #504C4C",
"g#	c #515254",
"h#	c #747A7E",
"i#	c #868D91",
"j#	c #939DA2",
"k#	c #929A9F",
"l#	c #848B90",
"m#	c #80868B",
"  . + @ + # $ % & * = = = - - = = ; ; > , ' ) ! ~ { ] ^ / ( _ : ",
"< [ } | 1 2 3 4 = = - 5 5 - - - - = = ; ; 6 7 8 9 9 0 a b c d e ",
"f g h i j k = - = 5 = - 5 5 5 = - - = = = ; l m n o p q r s t u ",
"v w x y = - 5 5 = z 5 = = - 5 - = - = - - - ; A B C D E F G H I ",
"J K L = - 5 = ; ; = z 5 - = = - = = - - = = = ; M N O P Q R S T ",
"U V ; - = ; - = ; ; - z z 5 - = ; - 5 5 - ; = ; W X M Y * Z `  .",
"..+.@.#.#.; ; - 5 - = = - - = ; - 5 = - 5 = ; = ; $.%.&.*.=.-.;.",
">.,.'.).; = ; ; = 5 z 5 !.#.; = = - 5 = - 5 ; = ; ~.{.].^./.(._.",
":.<.[.; = - = ; ; = ; ; #.}.; = - = 5 - ; - = |.; 1.2.3.4.5.6.7.",
"8.9.0.; - = ; = - = ; #.}.}.#.= - ; - 5 |.; = ; |.a.b.c.d.e.f.g.",
"h.i.j.k.= ; #.; - ; #.l.l.m.n.; = ; = 5 |.|.= ; |.o.p.q.r.s.t.u.",
"v.w.x.G #.y.#.; = ; #.#.z.m.n.#.= ; |.- |.; |.|.A.B.C.(.D.E.F.G.",
"H.I.J.K.L.M.#.n.; n.#.#.N.m.n.#.; ; n.|.; ; ; |.O.P.Q.(.R.S.T.U.",
"V.W.=.X.Y.Z.#.n.n.n.`.`.N.n.}.}.; #.n.|.; ; |. +.+++@+#+$+%+&+} ",
"*+=+-+;+>+,+#.}.}.}.`.`.N.}.}.}.; |.|.; |.; |.'+)+!+~+{+]+^+/+(+",
"_+:+<+[+}+|+#.}.}.}.}.}.}.}.}.}.m.|.; ; |.|.1+2+3+4+5+6+7+8+9+0+",
"a+b+c+> , ' #.m.}.}.}.}.}.}.}.n.l.d+|.; |.|.e+f+f+f+g+h+i+j+k+l+",
"m+n+( o+p+6 7 #.m.n.}.}.}.}.n.l.l.|.|.e+|.e+f+q+q+q+f+r+s+t+u+v+",
"w+x+y+z+A+B+l m #.#.l.l.|.l.l.l.f+q+q+q+f+f+f+q+C+C+q+f+D+E+F+G+",
"H+I+J+K+L+d ~ A B C #.l.M+N+#.q+q+f+#.#.O+|.e+e+e+q+C+q+f+P+Q+R+",
"S+T+U+V+W+b+X+Y+M N Z+`+ @#.q+f+#..@ @`+#.O+|.|.|.f+q+q+f++@%.@@",
"#@0.$@%@&@%@*@=@W X Z+`+-@q+f+#.Z+M+ @ @M+;@|.f+f+e+f+f+e+>@,@#@",
"'@)@z+!@~@{@]@d.L.$.Z+`+#.^@#.l.Z+Z+ @`+`+/@|.e+q+f+e+f+e+(@_@:@",
"<@[@$@}@|@1@2@3@G ~.Z+`+#.4@5@n.`+M+ @ @`+|.e+q+q+q+f+e+6@e+7@^+",
"8@9@0@a@b@c@d@e@f@1.g@h@#.n.}.i@ @ @ @`+j@|.f+f+q+q+f+f+k@e+l@m@",
"n@o@p@q@r@s@t@2.u@a.g@v@#.m.n.}. @`+`+M+|.e+f+q+q+q+q+f+|.c+w@w.",
"J.x@y@K.z@A@B@C@D@o.g@E@h@#.#.F@Z+Z+Z+Z+|.e+f+f+q+q+f+|.G@H@2@X.",
"J I@J@>@K@L@M@N@A.B.g@v@O@v@h@h@h@g@g@P@|.e+e+e+f+f+|.Q@R@S@T@U@",
"V@W@7.X@p@Y@Z@`@O.P.g@h@ #O@v@v@h@h@g@K.L.|.|.|.|.|., .#+#@###$#",
"%#&#*#=#-#;#># +.+++@+g@g@ #v@h@h@g@g@X.Y.Z.,#'#)#!#~#{#]#^#'+s+",
"/#(#_#:#<#x.[#'+)+!+~+g@v@O@O@h@g@g@}#;+>+,+#@|#1#2#3#4#5#6#7#8#",
"9#0#a#b#+ c#0 2+3+4+5+g@d#d#e#e#f#g@g#[+}+|+-#j.h#i#j#k#l#m#l#<@"};
