/* XPM */
static char * enemy_xpm[] = {
"32 32 456 2",
"  	c #858C92",
". 	c #7C858A",
"+ 	c #777F85",
"@ 	c #7A8388",
"# 	c #71797E",
"$ 	c #788086",
"% 	c #7F898E",
"& 	c #72797E",
"* 	c #595E61",
"= 	c #5D6164",
"- 	c #83878A",
"; 	c #A1A6AA",
"> 	c #ACB4BB",
", 	c #ABB8C1",
"' 	c #7D8288",
") 	c #9DA6AC",
"! 	c #6B6F73",
"~ 	c #6F7174",
"{ 	c #808386",
"] 	c #888B8F",
"^ 	c #7C8285",
"/ 	c #72777A",
"( 	c #777E81",
"_ 	c #848B8F",
": 	c #8C9497",
"< 	c #8F979D",
"[ 	c #878F94",
"} 	c #7B8287",
"| 	c #7B8186",
"1 	c #81868B",
"2 	c #868D92",
"3 	c #7B7F85",
"4 	c #777C82",
"5 	c #7E848A",
"6 	c #868F95",
"7 	c #7D858B",
"8 	c #676E73",
"9 	c #5A6064",
"0 	c #575C5F",
"a 	c #5C6063",
"b 	c #6E7176",
"c 	c #8C9095",
"d 	c #99A0A6",
"e 	c #969FA6",
"f 	c #868E95",
"g 	c #9298A0",
"h 	c #A6B0B9",
"i 	c #9099A0",
"j 	c #76797D",
"k 	c #7B7F83",
"l 	c #7E8285",
"m 	c #858A8E",
"n 	c #8C9398",
"o 	c #8F979C",
"p 	c #899095",
"q 	c #7E8489",
"r 	c #74787E",
"s 	c #75797F",
"t 	c #797D83",
"u 	c #7D8185",
"v 	c #797C81",
"w 	c #868B91",
"x 	c #929BA1",
"y 	c #97A2A9",
"z 	c #818B91",
"A 	c #5C6467",
"B 	c #484C4F",
"C 	c #474B4D",
"D 	c #545759",
"E 	c #636669",
"F 	c #75787C",
"G 	c #878C90",
"H 	c #8D939A",
"I 	c #888F96",
"J 	c #828A91",
"K 	c #98A2AA",
"L 	c #99A4AC",
"M 	c #868F96",
"N 	c #70777C",
"O 	c #686C71",
"P 	c #717579",
"Q 	c #7F8488",
"R 	c #8B9296",
"S 	c #929B9F",
"T 	c #90989D",
"U 	c #8E979C",
"V 	c #8B9299",
"W 	c #838A8F",
"X 	c #797E83",
"Y 	c #75787D",
"Z 	c #72747A",
"` 	c #717378",
" .	c #808388",
"..	c #8F959C",
"+.	c #98A1A8",
"@.	c #939FA6",
"#.	c #7B838A",
"$.	c #565A5E",
"%.	c #45474A",
"&.	c #4A4D4F",
"*.	c #5D5F62",
"=.	c #6C6E72",
"-.	c #777B7F",
";.	c #6E433E",
">.	c #AB704C",
",.	c #868F94",
"'.	c #848D91",
").	c #899197",
"!.	c #8B949B",
"~.	c #82898E",
"{.	c #777B81",
"].	c #71767A",
"^.	c #6E7075",
"/.	c #707277",
"(.	c #85878C",
"_.	c #898D93",
":.	c #83898F",
"<.	c #676F73",
"[.	c #4B5053",
"}.	c #3F4244",
"|.	c #382838",
"1.	c #D39B68",
"2.	c #D8BE97",
"3.	c #838B90",
"4.	c #838C91",
"5.	c #70777D",
"6.	c #63686C",
"7.	c #64686C",
"8.	c #67696E",
"9.	c #73757A",
"0.	c #898C92",
"a.	c #83878D",
"b.	c #777C81",
"c.	c #6A7276",
"d.	c #5C6266",
"e.	c #474B4E",
"f.	c #414446",
"g.	c #595C5E",
"h.	c #D29A67",
"i.	c #798085",
"j.	c #62686C",
"k.	c #5F6267",
"l.	c #6D6F74",
"m.	c #7F8186",
"n.	c #8F9399",
"o.	c #868B90",
"p.	c #797F83",
"q.	c #6F7477",
"r.	c #5D6265",
"s.	c #4E5356",
"t.	c #54575A",
"u.	c #6F7275",
"v.	c #575B5F",
"w.	c #595E60",
"x.	c #676A6E",
"y.	c #7B7E83",
"z.	c #8B8E94",
"A.	c #91969C",
"B.	c #838990",
"C.	c #767C80",
"D.	c #666B6F",
"E.	c #5A5F62",
"F.	c #6F7376",
"G.	c #85898C",
"H.	c #55585A",
"I.	c #606467",
"J.	c #85888C",
"K.	c #94979D",
"L.	c #90979D",
"M.	c #80878C",
"N.	c #70767B",
"O.	c #606669",
"P.	c #606567",
"Q.	c #727679",
"R.	c #878B8F",
"S.	c #64686A",
"T.	c #6E7376",
"U.	c #7C8084",
"V.	c #8B8E93",
"W.	c #979DA3",
"X.	c #868D93",
"Y.	c #757D81",
"Z.	c #6B7175",
"`.	c #62686B",
" +	c #878D90",
".+	c #949A9F",
"++	c #777A7E",
"@+	c #7C7F84",
"#+	c #888C91",
"$+	c #92999F",
"%+	c #777D82",
"&+	c #6B7276",
"*+	c #696F73",
"=+	c #6B7174",
"-+	c #7F858A",
";+	c #959CA1",
">+	c #7E8386",
",+	c #8A8F94",
"'+	c #8B9298",
")+	c #72787C",
"!+	c #6E7377",
"~+	c #6D7276",
"{+	c #959DA2",
"]+	c #929AA1",
"^+	c #D48C52",
"/+	c #382837",
"(+	c #AA6F4B",
"_+	c #878B90",
":+	c #8E9296",
"<+	c #989DA3",
"[+	c #8D949A",
"}+	c #767D81",
"|+	c #767B7F",
"1+	c #6F7377",
"2+	c #72767A",
"3+	c #80868A",
"4+	c #8B9297",
"5+	c #80888D",
"6+	c #EBB385",
"7+	c #909499",
"8+	c #9B9FA5",
"9+	c #9FA5AC",
"0+	c #8A9297",
"a+	c #72777C",
"b+	c #6F7277",
"c+	c #707376",
"d+	c #7F8487",
"e+	c #838A8E",
"f+	c #737B7F",
"g+	c #753E2D",
"h+	c #8A8E94",
"i+	c #9BA1A8",
"j+	c #9DA5AC",
"k+	c #6B7074",
"l+	c #5C5F62",
"m+	c #585B5D",
"n+	c #6D6F72",
"o+	c #7E8286",
"p+	c #82888C",
"q+	c #71777B",
"r+	c #000000",
"s+	c #949494",
"t+	c #83888B",
"u+	c #98A2A8",
"v+	c #70757A",
"w+	c #6A6E72",
"x+	c #4F5153",
"y+	c #58595A",
"z+	c #76777A",
"A+	c #85898B",
"B+	c #82898D",
"C+	c #6F7579",
"D+	c #D3D3D3",
"E+	c #28446C",
"F+	c #909597",
"G+	c #9DA5AB",
"H+	c #A9B4BD",
"I+	c #676C71",
"J+	c #506BA5",
"K+	c #FFD9AD",
"L+	c #110A0A",
"M+	c #46110C",
"N+	c #697075",
"O+	c #5B6166",
"P+	c #5C6065",
"Q+	c #6A6E73",
"R+	c #46120D",
"S+	c #182038",
"T+	c #010000",
"U+	c #0C0604",
"V+	c #46130E",
"W+	c #82858A",
"X+	c #82888D",
"Y+	c #7B8087",
"Z+	c #787F85",
"`+	c #798087",
" @	c #51565A",
".@	c #52565A",
"+@	c #5B5E63",
"@@	c #65686D",
"#@	c #6F7478",
"$@	c #73787D",
"%@	c #4C6CB3",
"&@	c #344C78",
"*@	c #C46967",
"=@	c #A83D3B",
"-@	c #47120D",
";@	c #C16865",
">@	c #100C17",
",@	c #7E8185",
"'@	c #7F8388",
")@	c #7B8185",
"!@	c #74797E",
"~@	c #696E73",
"{@	c #5C6166",
"]@	c #63676B",
"^@	c #5F6266",
"/@	c #5D6064",
"(@	c #626669",
"_@	c #6E7275",
":@	c #A73D3B",
"<@	c #C76B69",
"[@	c #A63D3B",
"}@	c #010102",
"|@	c #7E8487",
"1@	c #7C8286",
"2@	c #7B8085",
"3@	c #767B80",
"4@	c #8E959C",
"5@	c #7C8287",
"6@	c #626569",
"7@	c #626468",
"8@	c #626568",
"9@	c #6A6D71",
"0@	c #82868A",
"a@	c #878C91",
"b@	c #8B9196",
"c@	c #8F969A",
"d@	c #8C9399",
"e@	c #6F757A",
"f@	c #64686B",
"g@	c #686C6E",
"h@	c #6B6D70",
"i@	c #732612",
"j@	c #C66A68",
"k@	c #45110C",
"l@	c #888D91",
"m@	c #8E959A",
"n@	c #797E84",
"o@	c #61666A",
"p@	c #606468",
"q@	c #686B6F",
"r@	c #6D6F73",
"s@	c #512F31",
"t@	c #722511",
"u@	c #A73C3A",
"v@	c #A43C3A",
"w@	c #81868A",
"x@	c #83898E",
"y@	c #696E72",
"z@	c #62666A",
"A@	c #696C70",
"B@	c #6C6F73",
"C@	c #6A6C70",
"D@	c #66686C",
"E@	c #616366",
"F@	c #6D6E71",
"G@	c #3B3838",
"H@	c #545959",
"I@	c #535858",
"J@	c #858A8C",
"K@	c #707679",
"L@	c #73777A",
"M@	c #6F7375",
"N@	c #717479",
"O@	c #767A7F",
"P@	c #66696D",
"Q@	c #5B5E61",
"R@	c #555758",
"S@	c #575759",
"T@	c #606163",
"U@	c #707072",
"V@	c #7C7D81",
"W@	c #616669",
"X@	c #6B6E70",
"Y@	c #7D8084",
"Z@	c #7A7F83",
"`@	c #6C7072",
" #	c #6C6E70",
".#	c #717376",
"+#	c #888B91",
"@#	c #898D92",
"##	c #65696C",
"$#	c #56585A",
"%#	c #555658",
"&#	c #616163",
"*#	c #6F6F72",
"=#	c #7B7C80",
"-#	c #828487",
";#	c #5A5E61",
">#	c #6E7174",
",#	c #7B7E82",
"'#	c #6C6F72",
")#	c #747679",
"!#	c #818286",
"~#	c #83858A",
"{#	c #989CA1",
"]#	c #9CA1A7",
"^#	c #848A8F",
"/#	c #5A5C5E",
"(#	c #646566",
"_#	c #777779",
":#	c #828386",
"<#	c #838487",
"[#	c #818386",
"}#	c #5B5F62",
"|#	c #74777C",
"1#	c #818489",
"2#	c #76797C",
"3#	c #909497",
"4#	c #94999D",
"5#	c #A1A7AD",
"6#	c #A4ABB3",
"7#	c #A1A8B1",
"8#	c #8D949B",
"9#	c #636569",
"0#	c #75767A",
"a#	c #8B8C90",
"b#	c #8F9496",
"c#	c #818487",
"d#	c #747678",
"e#	c #7C7E82",
"f#	c #452B2B",
"g#	c #78523D",
"h#	c #5D6366",
"i#	c #5E6265",
"j#	c #787C7F",
"k#	c #8B9095",
"l#	c #888D93",
"m#	c #818589",
"n#	c #8D9297",
"o#	c #979EA3",
"p#	c #9FA7AF",
"q#	c #A3ACB4",
"r#	c #A1AAB3",
"s#	c #919CA3",
"t#	c #757C82",
"u#	c #82878B",
"v#	c #949BA0",
"w#	c #71777A",
"x#	c #5F6265",
"y#	c #717476",
"z#	c #686D71",
"A#	c #7D8386",
"B#	c #8E969B",
"C#	c #8F979B",
"D#	c #858B90",
"E#	c #898F93",
"F#	c #90979C",
"G#	c #959DA3",
"H#	c #939CA3",
"I#	c #959FA7",
"J#	c #8F9AA1",
"K#	c #879298",
"L#	c #72797F",
"M#	c #9BA4AA",
"N#	c #8B949A",
"O#	c #5F6467",
"P#	c #535557",
"Q#	c #737678",
"R#	c #747A7E",
"S#	c #868D91",
"T#	c #939DA2",
"U#	c #929A9F",
"V#	c #848B90",
"W#	c #80868B",
"  . + @ + # $ % & * = - ; > , ' ) ! ~ { ] ^ / ( _ : < [ } | 1 2 ",
"3 4 5 6 7 8 9 0 0 a b c d e f g h i | j k l m n o o p q r s t u ",
"v w x y z A B C D E F G H I J K L M N O P Q R S T U V W X Y Z ` ",
" ...+.@.#.$.%.&.*.=.-.;.;.>.>.>.>.>.>.>.>.;.;.,.'.).!.~.{.].^./.",
"(._.:.$ <.[.}.|.>.>.;.>.>.1.2.2.2.1.1.1.1.>.>.;.;.3.4.5.6.7.8.9.",
"0.a.b.c.d.e.f.g.|.>.1.1.2.2.h.1.1.1.1.1.1.1.>.>.>.;.i.j.* k.l.m.",
"n.o.p.q.r.s.t.u.|.;.2.2.1.1.1.1.1.1.1.1.1.1.1.>.;.|.;.v.w.x.y.z.",
"A.B.C.D.E.= F.G.|.>.2.1.1.1.1.>.1.1.1.>.1.1.1.1.>.;.|.H.I.q.J.K.",
"L.M.N.O.P.Q.R.|.;.>.2.2.1.>.1.>.>.1.1.;.1.1.1.1.2.>.;.S.T.U.V.W.",
"X.Y.Z.`.P  +.+;.>.1.1.2.>.2.2.;.>.2.>.;.2.2.>.2.1.>.>.;.++@+#+$+",
"%+&+*+=+-+;+|.>.1.1.>.2.;.>.1.;.;.>.|.;.1.>.|.>.>.;.>.>.|.>+,+'+",
")+!+~+]._ {+]+|.;.1.;.1.|.;.>.|.^+;.^+/+(+;.|.>.>.>.;.|._+:+<+[+",
"}+|+1+2+3+4+5+|.;.>.|.>.|.^+;.^+6+^+6+^+;.|.|.;.>.;.;.|.7+8+9+0+",
"a+b+x.c+d+e+f+|.;.>.|.;.g+g+g+^+6+6+6+^+g+g+g+|.>.;.;.|.h+i+j+5 ",
"k+l+m+n+o+p+q+r+|.|.|.g+s+r+r+6+6+6+6+6+r+r+s+|.>.|.|.r+t+;+u+v+",
"w+x+y+z+A+B+C+r+|.r+|.g+D+r+E+6+6+6+6+6+E+r+D+|.;.r+|.r+F+G+H+I+",
") ! ~ { ] ^ / ( r+r+;.^+D+J+J+K+K+K+K+K+J+J+D+;.|.r+r+- ; > , ' ",
"h i | j k l m n o o ;.^+6+K+K+K+K+K+K+K+K+K+6+;.L+a b c d e f g ",
"L M N O P Q R S T U M+r+^+6+K+K+K+K+K+K+K+6+^+r+r+E F G H I J K ",
"N+O+$.P+Q+t _ ,.'.R+S+r+T+g+^+6+6+6+6+6+^+g+U+r+S+V+-.W+X+Y+Z+`+",
" @s..@+@@@! #@$@i.r+%@&@r+*@=@-@r+g+r+-@=@;@r+&@%@>@,@'@)@!@~@{@",
"q+Z.]@^@/@^@(@_@-@=@r+%@&@r+:@<@=@r+=@<@[@r+&@%@}@=@-@|@1@2@3@q+",
"4@5@O 6@7@8@9@-@=@<@=@r+&@r+-@=@=@=@=@=@R+r+&@r+=@<@=@-@0@a@b@c@",
"d@e@]@f@g@h@r+^+i@j@i@r+r+k@i@=@<@<@<@=@i@k@r+r+i@<@i@^+r+l@m@;+",
"n@o@p@q@=.r@r+K+^+-@r+r+s@t@u@=@i@i@i@=@v@i@-@r+r+-@^+K+r+2@w@x@",
"y@z@A@B@C@D@E@r+r+r+F@G@H@I@J@J@J@H@H@H@H@I@H@G@K@r+r+r+L@~ M@!+",
"1+N@O@2+P@Q@R@S@T@U@V@G@H@J@J@G@G@G@G@G@J@J@H@G@W@X@Y@Z@`@ #.#c+",
"(.+#@#2@##$#%#&#*#=#-#G@H@J@J@H@G@r+G@H@J@J@H@G@;#>#W+,#'#)#!#~#",
"{#]#W.^#A@/#(#_#:#<#[#G@G@H@H@G@r+|+r+G@H@H@G@G@}#|#] 1#2#G.3#4#",
"5#6#7#8#C+9#0#a#b#c#d#e#r+f#g#g#r+b+r+g#g#f#r+h#i#j#k#l#m#n#o#d ",
"p#q#r#s#t#~+u#o#v#w#x#y#t+;+u+v+k+l+m+n+o+p+q+`.z#A#B#C#D#E#F#G#",
"H#I#J#K#+ L#p M#N#O#P#Q#F+G+H+I+w+x+y+z+A+B+C+*+R#S#T#U#V#W#V#d@"};
