/* XPM */
static char * mur3232_xpm[] = {
"32 32 963 2",
"  	c #73A4FE",
". 	c #7BA6F4",
"+ 	c #90C0FF",
"@ 	c #92C4FF",
"# 	c #7FA9F7",
"$ 	c #7C9DDA",
"% 	c #99BAF8",
"& 	c #A9CBFF",
"* 	c #B4D2FF",
"= 	c #D2EFFF",
"- 	c #D1F8FF",
"; 	c #A5D0FF",
"> 	c #A2C0F9",
", 	c #C8ECFF",
"' 	c #ADD8FF",
") 	c #9BC0FF",
"! 	c #AAD1FF",
"~ 	c #A6D4FF",
"{ 	c #8CC2FF",
"] 	c #6492E3",
"^ 	c #4A6493",
"/ 	c #8AA7E0",
"( 	c #BEECFF",
"_ 	c #9BD5FF",
": 	c #6C9FFD",
"< 	c #435D8B",
"[ 	c #6A82AE",
"} 	c #BCDEFF",
"| 	c #BEEBFF",
"1 	c #9FCFFF",
"2 	c #88B1FC",
"3 	c #7CA5F1",
"4 	c #77B5FF",
"5 	c #7CB6FF",
"6 	c #86C2FF",
"7 	c #89C4FF",
"8 	c #84BBFF",
"9 	c #8DBDFF",
"0 	c #9FCCFF",
"a 	c #A3D2FF",
"b 	c #A8D5FF",
"c 	c #B6E0FF",
"d 	c #ACE0FF",
"e 	c #97CCFF",
"f 	c #A6D3FF",
"g 	c #9AC9FF",
"h 	c #B4E6FF",
"i 	c #BDF1FF",
"j 	c #B4E8FF",
"k 	c #A8E3FF",
"l 	c #8EC6FF",
"m 	c #84B0FF",
"n 	c #A6D2FF",
"o 	c #B7ECFF",
"p 	c #9EE1FF",
"q 	c #81BFFF",
"r 	c #76A3F5",
"s 	c #93BBFF",
"t 	c #B3E0FF",
"u 	c #AFE6FF",
"v 	c #90C7FF",
"w 	c #7DA8F8",
"x 	c #91BAFF",
"y 	c #6682FE",
"z 	c #6685FE",
"A 	c #6A95FF",
"B 	c #6AA1FF",
"C 	c #6BA3FF",
"D 	c #69A5FF",
"E 	c #6DBEFF",
"F 	c #6FCAFF",
"G 	c #6FC0FF",
"H 	c #72B9FF",
"I 	c #74B6FF",
"J 	c #6FA9FF",
"K 	c #6CA0FF",
"L 	c #5D81E5",
"M 	c #72A1FA",
"N 	c #A1E1FF",
"O 	c #7CCAFF",
"P 	c #74C5FF",
"Q 	c #74BEFF",
"R 	c #6FB3FF",
"S 	c #69A9FF",
"T 	c #6EA9FF",
"U 	c #76A3FF",
"V 	c #7697FF",
"W 	c #6B89FF",
"X 	c #6486F8",
"Y 	c #6890FF",
"Z 	c #709BFF",
"` 	c #759AFF",
" .	c #5F77EE",
"..	c #5A83CE",
"+.	c #7FAFFF",
"@.	c #5579D5",
"#.	c #567FD5",
"$.	c #5887DA",
"%.	c #598CDC",
"&.	c #5A90DF",
"*.	c #5A97DE",
"=.	c #5AA5DC",
"-.	c #5CB3E2",
";.	c #5DAEE4",
">.	c #5EA3E5",
",.	c #5B99E1",
"'.	c #5C8CE0",
").	c #5D8AE5",
"!.	c #2E4374",
"~.	c #3F5C8F",
"{.	c #81BDFF",
"].	c #6DC9FF",
"^.	c #59ACD8",
"/.	c #5BA9E0",
"(.	c #5BA1DD",
"_.	c #599FDC",
":.	c #5D9BE3",
"<.	c #5D8AE6",
"[.	c #5B7AE1",
"}.	c #5A78E0",
"|.	c #587DDC",
"1.	c #5886D9",
"2.	c #5B88E0",
"3.	c #5B80E3",
"4.	c #364688",
"5.	c #293E64",
"6.	c #5679BC",
"7.	c #5890D7",
"8.	c #5997D7",
"9.	c #5C97DF",
"0.	c #5D93E5",
"a.	c #5D90E5",
"b.	c #5B91DF",
"c.	c #5C9CE1",
"d.	c #5FAAEA",
"e.	c #5FA2E9",
"f.	c #5F9CE9",
"g.	c #5C88E2",
"h.	c #5D89E4",
"i.	c #243459",
"j.	c #304160",
"k.	c #7BAEFF",
"l.	c #68C3FB",
"m.	c #59B7D7",
"n.	c #5CB9E0",
"o.	c #5CB0E0",
"p.	c #5BA9DF",
"q.	c #5EA1E7",
"r.	c #5E8DEA",
"s.	c #5A7CE0",
"t.	c #597CDE",
"u.	c #5882DB",
"v.	c #5A8FDF",
"w.	c #5D8CE5",
"x.	c #5C7DE5",
"y.	c #293366",
"z.	c #151F2F",
"A.	c #3F5378",
"B.	c #5BABE1",
"C.	c #5CAEE1",
"D.	c #5FA7E9",
"E.	c #5F98EA",
"F.	c #5B8AE4",
"G.	c #598ADE",
"H.	c #5B93E0",
"I.	c #5F9AEA",
"J.	c #5E91E9",
"K.	c #5E8DE9",
"L.	c #5B86E2",
"M.	c #5A82DE",
"N.	c #5B8BDF",
"O.	c #1B2842",
"P.	c #242F43",
"Q.	c #8CBBFF",
"R.	c #69C4FF",
"S.	c #5DC1DF",
"T.	c #5FC3E3",
"U.	c #60BFEA",
"V.	c #5DAEE5",
"W.	c #5E9FE6",
"X.	c #5D8BE6",
"Y.	c #597BDE",
"Z.	c #5B80E0",
"`.	c #5987DC",
" +	c #5B8DDF",
".+	c #5C88E5",
"++	c #5B79E3",
"@+	c #1E264C",
"#+	c #1B2334",
"$+	c #6C87B8",
"%+	c #5EB3E3",
"&+	c #5EB6E6",
"*+	c #60A9EA",
"=+	c #5D93E8",
"-+	c #5981DC",
";+	c #5885D9",
">+	c #5A8EDC",
",+	c #5B86E1",
"'+	c #5A80E0",
")+	c #597EDD",
"!+	c #5980DB",
"~+	c #5B8FE1",
"{+	c #152134",
"]+	c #1B222F",
"^+	c #A2CDFF",
"/+	c #6DCBFF",
"(+	c #5EC3E5",
"_+	c #62CBEC",
":+	c #63C5F1",
"<+	c #60B2EC",
"[+	c #609CEA",
"}+	c #5F8AE9",
"|+	c #5B7DE1",
"1+	c #5B81E1",
"2+	c #5B88E1",
"3+	c #5C86E1",
"4+	c #5D83E8",
"5+	c #5B77E1",
"6+	c #1E254A",
"7+	c #35435F",
"8+	c #9CC7FF",
"9+	c #162735",
"0+	c #1D3448",
"a+	c #294366",
"b+	c #2B3E6C",
"c+	c #1F2A4D",
"d+	c #151F35",
"e+	c #121B2D",
"f+	c #111A2B",
"g+	c #131B30",
"h+	c #19213D",
"i+	c #1C2645",
"j+	c #1D2948",
"k+	c #17233A",
"l+	c #000000",
"m+	c #12161E",
"n+	c #86A3D9",
"o+	c #4272A2",
"p+	c #26475C",
"q+	c #34627F",
"r+	c #3B6D91",
"s+	c #39618C",
"t+	c #2E4874",
"u+	c #2C3F6F",
"v+	c #2B3A6B",
"w+	c #314279",
"x+	c #3C5294",
"y+	c #3E549A",
"z+	c #364685",
"A+	c #293468",
"B+	c #1B2244",
"C+	c #5672A4",
"D+	c #98D2FF",
"E+	c #2B3546",
"F+	c #3C4A63",
"G+	c #495F86",
"H+	c #364B72",
"I+	c #131B28",
"J+	c #0A0D12",
"K+	c #151A22",
"L+	c #212835",
"M+	c #2D3648",
"N+	c #384761",
"O+	c #394967",
"P+	c #303E58",
"Q+	c #1E2738",
"R+	c #11151D",
"S+	c #3A4355",
"T+	c #90A7D1",
"U+	c #6C81AB",
"V+	c #445779",
"W+	c #516FA5",
"X+	c #4D6DA8",
"Y+	c #3C5686",
"Z+	c #31466B",
"`+	c #384C71",
" @	c #3D547E",
".@	c #4B689C",
"+@	c #5379BC",
"@@	c #4F77BE",
"#@	c #416098",
"$@	c #405987",
"%@	c #5371A8",
"&@	c #74A1F4",
"*@	c #88C5FF",
"=@	c #B9E5FF",
"-@	c #BDEDFF",
";@	c #B0E9FF",
">@	c #96D1FF",
",@	c #516B9A",
"'@	c #52617E",
")@	c #DDFFFF",
"!@	c #D9FFFF",
"~@	c #B9E7FF",
"{@	c #B4E7FF",
"]@	c #A6DDFF",
"^@	c #9ED2FF",
"/@	c #9BC9FF",
"(@	c #A5CBFF",
"_@	c #BEDFFF",
":@	c #CCF0FF",
"<@	c #CCF5FF",
"[@	c #C2F5FF",
"}@	c #A3E3FF",
"|@	c #8CCCFF",
"1@	c #6B98ED",
"2@	c #6991D8",
"3@	c #9DD4FF",
"4@	c #9FDEFF",
"5@	c #9BD8FF",
"6@	c #8FD4FF",
"7@	c #7EC0FF",
"8@	c #72AEFF",
"9@	c #7DB5FF",
"0@	c #8CC9FF",
"a@	c #89CDFF",
"b@	c #85C7FF",
"c@	c #72D6FF",
"d@	c #75D8FF",
"e@	c #77D8FF",
"f@	c #71C6FF",
"g@	c #2D496F",
"h@	c #49556D",
"i@	c #E8FFFF",
"j@	c #81D6FF",
"k@	c #72D0FF",
"l@	c #75D4FF",
"m@	c #74D0FF",
"n@	c #6FCDFF",
"o@	c #6CC9FF",
"p@	c #6BBFFF",
"q@	c #6CB8FF",
"r@	c #6FBEFF",
"s@	c #74CBFF",
"t@	c #78CFFF",
"u@	c #78BDFF",
"v@	c #70A0FF",
"w@	c #40559F",
"x@	c #5575B0",
"y@	c #98D6FF",
"z@	c #7C9EFF",
"A@	c #7190FF",
"B@	c #728EFF",
"C@	c #6D89FF",
"D@	c #6884FF",
"E@	c #6986FF",
"F@	c #6E8EFF",
"G@	c #6D8FFF",
"H@	c #6A8BFF",
"I@	c #5BBEDF",
"J@	c #5CB8DD",
"K@	c #5CB6E1",
"L@	c #5FB7E5",
"M@	c #152533",
"N@	c #232A38",
"O@	c #CAF1FF",
"P@	c #70C9FF",
"Q@	c #59B1D8",
"R@	c #5AB4DB",
"S@	c #5DB8E0",
"T@	c #5CB8DE",
"U@	c #5DBAE1",
"V@	c #5DB4E2",
"W@	c #5BABDF",
"X@	c #5DACE2",
"Y@	c #5EACE5",
"Z@	c #5BA6DF",
"`@	c #5B9FE0",
" #	c #5A91DF",
".#	c #1F2D4C",
"+#	c #28364E",
"@#	c #8ABBFF",
"##	c #6888FF",
"$#	c #5975E0",
"%#	c #5A75DF",
"&#	c #5979E0",
"*#	c #5978E0",
"=#	c #5875DF",
"-#	c #5775D9",
";#	c #587CD9",
">#	c #5AB5D9",
",#	c #5BB8DD",
"'#	c #5EBCE2",
")#	c #5EBEE6",
"!#	c #182D3C",
"~#	c #2A3447",
"{#	c #C0ECFF",
"]#	c #73CBFF",
"^#	c #5BB1E0",
"/#	c #5CB1DE",
"(#	c #5FB9E6",
"_#	c #60BDEA",
":#	c #5FBCE7",
"<#	c #5DB4E3",
"[#	c #5AAEDD",
"}#	c #5CB0E1",
"|#	c #5AA5DF",
"1#	c #5CA5DF",
"2#	c #5EA3E6",
"3#	c #1F324D",
"4#	c #2C384F",
"5#	c #A4D2FF",
"6#	c #6A91FF",
"7#	c #597CDF",
"8#	c #577ADA",
"9#	c #597CDC",
"0#	c #5679D7",
"a#	c #5476D1",
"b#	c #5578D3",
"c#	c #567BD5",
"d#	c #5983DC",
"e#	c #5DB5E1",
"f#	c #5EB9E1",
"g#	c #5EBDE3",
"h#	c #5EC0E5",
"i#	c #1A3141",
"j#	c #35435B",
"k#	c #74C9FF",
"l#	c #5AB0DD",
"m#	c #5EB1E5",
"n#	c #5EB1E6",
"o#	c #5DB3E3",
"p#	c #5BB4DE",
"q#	c #5AB5DB",
"r#	c #5CB9DD",
"s#	c #59ADDB",
"t#	c #59AAD8",
"u#	c #5EAFE6",
"v#	c #1F334C",
"w#	c #2A374E",
"x#	c #A7D7FF",
"y#	c #6DA5FF",
"z#	c #5789D9",
"A#	c #5786D9",
"B#	c #5986DB",
"C#	c #5886DB",
"D#	c #5786D6",
"E#	c #598EDA",
"F#	c #588FDA",
"G#	c #588CD7",
"H#	c #5EB8E7",
"I#	c #62BCEB",
"J#	c #62BCED",
"K#	c #25435B",
"L#	c #475A7D",
"M#	c #ADE5FF",
"N#	c #75CFFF",
"O#	c #5CB4E0",
"P#	c #5EB7E6",
"Q#	c #60AFE9",
"R#	c #60ABEA",
"S#	c #5DB1E5",
"T#	c #5DB8E1",
"U#	c #5EC0E3",
"V#	c #60C7EB",
"W#	c #5FC0E8",
"X#	c #5FBCE3",
"Y#	c #5EB9E5",
"Z#	c #142432",
"`#	c #161C27",
" $	c #9AC4FF",
".$	c #69ADFF",
"+$	c #5A9ADC",
"@$	c #5A97DC",
"#$	c #5A97DD",
"$$	c #5A9ADE",
"%$	c #599BDC",
"&$	c #5DA5E2",
"*$	c #5CA4E4",
"=$	c #5B99DF",
"-$	c #4E8CBE",
";$	c #3E6E98",
">$	c #2F5174",
",$	c #2C4B6E",
"'$	c #213553",
")$	c #4E6999",
"!$	c #95CCFF",
"~$	c #63A3F1",
"{$	c #447BA7",
"]$	c #41749F",
"^$	c #3B6390",
"/$	c #3D6696",
"($	c #3F709B",
"_$	c #376487",
":$	c #2C526D",
"<$	c #244257",
"[$	c #213D51",
"}$	c #223F53",
"|$	c #1E384B",
"1$	c #13242F",
"2$	c #11141A",
"3$	c #8CA7D9",
"4$	c #4672AE",
"5$	c #243D5A",
"6$	c #26405E",
"7$	c #243C58",
"8$	c #233C56",
"9$	c #274460",
"0$	c #355A82",
"a$	c #3C6193",
"b$	c #4D79C8",
"c$	c #3A588E",
"d$	c #2F4265",
"e$	c #3E5278",
"f$	c #4E699B",
"g$	c #6E97E0",
"h$	c #8FC7FF",
"i$	c #7BAFFF",
"j$	c #537CC4",
"k$	c #4669A6",
"l$	c #46659C",
"m$	c #5173B0",
"n$	c #4C70B0",
"o$	c #364F7C",
"p$	c #273652",
"q$	c #1C2535",
"r$	c #1A222F",
"s$	c #222B3D",
"t$	c #1F2839",
"u$	c #141923",
"v$	c #1B202A",
"w$	c #66758F",
"x$	c #C1E0FF",
"y$	c #8FB3F6",
"z$	c #49608B",
"A$	c #3B4F73",
"B$	c #2D3C58",
"C$	c #29364E",
"D$	c #2E3D58",
"E$	c #3A4D6E",
"F$	c #526FA4",
"G$	c #4F73B6",
"H$	c #4E79C5",
"I$	c #659BF7",
"J$	c #81B5FF",
"K$	c #98CCFF",
"L$	c #91CFFF",
"M$	c #89CCFF",
"N$	c #87C9FF",
"O$	c #7EBDFF",
"P$	c #7AB5FF",
"Q$	c #81BCFF",
"R$	c #8AC9FF",
"S$	c #82C2FF",
"T$	c #79B0FF",
"U$	c #84B3FF",
"V$	c #617CAF",
"W$	c #667CA4",
"X$	c #C4EEFF",
"Y$	c #C7FAFF",
"Z$	c #A8D0FF",
"`$	c #B9DBFF",
" %	c #C2EAFF",
".%	c #B8EAFF",
"+%	c #A9E3FF",
"@%	c #99D6FF",
"#%	c #92CAFF",
"$%	c #98CAFF",
"%%	c #A6D5FF",
"&%	c #ADDDFF",
"*%	c #AAE0FF",
"=%	c #A6E3FF",
"-%	c #8CD0FF",
";%	c #4868A2",
">%	c #749DFF",
",%	c #6D9EFF",
"'%	c #71B0FF",
")%	c #71B2FF",
"!%	c #6EB1FF",
"~%	c #6CB6FF",
"{%	c #68B7FF",
"]%	c #69BFFE",
"^%	c #6BC9FF",
"/%	c #6DCAFF",
"(%	c #6EC3FF",
"_%	c #69B3FF",
":%	c #68ACFF",
"<%	c #324B7A",
"[%	c #4C5B77",
"}%	c #DCFFFF",
"|%	c #81B9FF",
"1%	c #6BA6FF",
"2%	c #6CB0FF",
"3%	c #73C4FF",
"4%	c #76CEFF",
"5%	c #76D1FF",
"6%	c #72CEFF",
"7%	c #6EC4FF",
"8%	c #6CC2FF",
"9%	c #75D9FF",
"0%	c #72D1FF",
"a%	c #749ADD",
"b%	c #87BBFF",
"c%	c #5981DE",
"d%	c #5892D8",
"e%	c #599DDA",
"f%	c #5CA9DF",
"g%	c #59ABD9",
"h%	c #5AB4D9",
"i%	c #5CBDDE",
"j%	c #5DB5E4",
"k%	c #5DACE5",
"l%	c #5DA3E4",
"m%	c #121D2E",
"n%	c #1D242F",
"o%	c #C5ECFF",
"p%	c #6E9BFF",
"q%	c #5A8ADF",
"r%	c #5A98DC",
"s%	c #59A7DB",
"t%	c #5BB0DE",
"u%	c #5EB6E4",
"v%	c #5FB1E6",
"w%	c #5DAEE3",
"x%	c #5CB1E0",
"y%	c #5BB7DD",
"z%	c #5CBADF",
"A%	c #5BB5DE",
"B%	c #A5D9FF",
"C%	c #97D6FF",
"D%	c #719FFF",
"E%	c #5780D8",
"F%	c #568AD7",
"G%	c #5897D8",
"H%	c #5AA1DC",
"I%	c #5BADDE",
"J%	c #5CB7E0",
"K%	c #5FBEE6",
"L%	c #5EB2E7",
"M%	c #5CA6E4",
"N%	c #5DA1E5",
"O%	c #131E30",
"P%	c #1E2532",
"Q%	c #C1E9FF",
"R%	c #6F9FFF",
"S%	c #5B8DE0",
"T%	c #5AA0DD",
"U%	c #5DB7E2",
"V%	c #5CB5E1",
"W%	c #5EB3E6",
"X%	c #5FB0EA",
"Y%	c #5DA6E6",
"Z%	c #5FAEE9",
"`%	c #5DB3E4",
" &	c #5DB5E5",
".&	c #5EBBE5",
"+&	c #97D0FF",
"@&	c #8BCDFF",
"#&	c #6FAAFF",
"$&	c #588EDA",
"%&	c #5996D8",
"&&	c #58A0D7",
"*&	c #5AA6DD",
"=&	c #5BABE0",
"-&	c #5BADDD",
";&	c #5CB3E0",
">&	c #5DB9E5",
",&	c #5FB6E6",
"'&	c #5DA6E4",
")&	c #5DA1E7",
"!&	c #151F34",
"~&	c #2C3547",
"{&	c #C0EBFF",
"]&	c #72B1FF",
"^&	c #5A96DC",
"/&	c #58A0DA",
"(&	c #59ADD9",
"_&	c #59B5DB",
":&	c #5AB3DD",
"<&	c #5CADDF",
"[&	c #5EA8E5",
"}&	c #5C98E2",
"|&	c #5D94E5",
"1&	c #5B9AE0",
"2&	c #5BA0DF",
"3&	c #89BEFF",
"4&	c #84C3FF",
"5&	c #6DAFFF",
"6&	c #5A9DDE",
"7&	c #5CA1E0",
"8&	c #5CABE4",
"9&	c #5DB0E1",
"0&	c #5DB7E3",
"a&	c #5CB9E1",
"b&	c #5DB9E1",
"c&	c #5EB0E6",
"d&	c #5FA1EA",
"e&	c #1B2744",
"f&	c #425270",
"g&	c #76BAFF",
"h&	c #5A97DF",
"i&	c #5B9BDF",
"j&	c #5BA8DE",
"k&	c #5CB6DE",
"l&	c #5EBAE1",
"m&	c #60B9EA",
"n&	c #60AEEB",
"o&	c #5E9AE8",
"p&	c #5D87E5",
"q&	c #5C82E4",
"r&	c #5C85E2",
"s&	c #5B8EDF",
"t&	c #5C9BE1",
"u&	c #8CC3FF",
"v&	c #7AB4FF",
"w&	c #4B76B8",
"x&	c #2A4768",
"y&	c #2B4A6A",
"z&	c #2A4B68",
"A&	c #305A77",
"B&	c #315C78",
"C&	c #2B526B",
"D&	c #294C64",
"E&	c #315875",
"F&	c #335A7D",
"G&	c #2E4E71",
"H&	c #2A4168",
"I&	c #1C2646",
"J&	c #5F7CB0",
"K&	c #9DDAFF",
"L&	c #6B9FFF",
"M&	c #4367A5",
"N&	c #456CAB",
"O&	c #416BA0",
"P&	c #355C81",
"Q&	c #2F5573",
"R&	c #2C4F6D",
"S&	c #274361",
"T&	c #263A5E",
"U&	c #212E53",
"V&	c #1D2648",
"W&	c #1E284A",
"X&	c #243359",
"Y&	c #283D63",
"Z&	c #81BEFF",
"`&	c #78B2FF",
" *	c #5F89D3",
".*	c #405986",
"+*	c #36496C",
"@*	c #2B3A55",
"#*	c #26334C",
"$*	c #35486B",
"%*	c #415B8A",
"&*	c #3A517A",
"**	c #394C6F",
"=*	c #4B6491",
"-*	c #4A679E",
";*	c #3A517C",
">*	c #3D5279",
",*	c #5572A7",
"'*	c #7DADFF",
")*	c #8CCDFF",
"!*	c #6AA2FF",
"~*	c #4568A8",
"{*	c #4567A4",
"]*	c #375386",
"^*	c #293C5E",
"/*	c #334567",
"(*	c #374A6C",
"_*	c #394B6C",
":*	c #344565",
"<*	c #34435F",
"[*	c #3F5071",
"}*	c #495F88",
"|*	c #49628F",
"1*	c #7ABBFF",
"2*	c #76B5FF",
"3*	c #76B1FF",
"4*	c #7CB5FF",
"5*	c #8ABFFF",
"6*	c #7092D2",
"7*	c #6782B5",
"8*	c #A9D6FF",
"9*	c #A5E2FF",
"0*	c #8AC3FF",
"a*	c #93C7FF",
"b*	c #A6DCFF",
"c*	c #97D5FF",
"d*	c #88C1FF",
"e*	c #93C8FF",
"f*	c #9CD8FF",
"g*	c #91D4FF",
"h*	c #83C9FF",
"i*	c #78B7FF",
"j*	c #77B1FF",
"k*	c #4D70AF",
"l*	c #394E74",
"m*	c #94C4FF",
"n*	c #A8E5FF",
"o*	c #99CEFF",
"p*	c #9FD4FF",
"q*	c #9BCFFF",
"r*	c #9CCFFF",
"s*	c #9FD7FF",
"t*	c #9CD6FF",
"u*	c #93D1FF",
"v*	c #67AAFA",
"w*	c #68AEFF",
"x*	c #68ABFF",
"y*	c #67ABFD",
"z*	c #3A598F",
"A*	c #556990",
"B*	c #C6F5FF",
"C*	c #7DC3FF",
"D*	c #6FB1FF",
"E*	c #6DA3FF",
"F*	c #729AFF",
"G*	c #6C96FF",
"H*	c #73BAFF",
"I*	c #73B5FF",
"J*	c #668CFE",
"K*	c #6688FE",
"L*	c #6993FF",
"M*	c #2C406F",
"N*	c #344159",
"O*	c #B2E0FF",
"P*	c #7CA7FF",
"Q*	c #6E99FF",
"R*	c #6E95FF",
"S*	c #6F97FF",
"T*	c #7092FF",
"U*	c #7296FF",
"V*	c #70A1FF",
"W*	c #5FA9E6",
"X*	c #5EADE4",
"Y*	c #5CAAE2",
"Z*	c #5AA0DF",
"`*	c #5DA2E5",
" =	c #20324E",
".=	c #313E57",
"+=	c #BCEBFF",
"@=	c #72B7FF",
"#=	c #5B98E0",
"$=	c #5C92E4",
"%=	c #5B86E0",
"&=	c #5A80DD",
"*=	c #5984DC",
"==	c #5991DA",
"-=	c #5A9FDC",
";=	c #5C9BE0",
">=	c #5883D9",
",=	c #5780D6",
"'=	c #5785D6",
")=	c #19263D",
"!=	c #2C3648",
"~=	c #BBE7FF",
"{=	c #5B87DF",
"]=	c #5982DC",
"^=	c #5A82DC",
"/=	c #5B81E0",
"(=	c #5C7CE4",
"_=	c #5E7DE6",
":=	c #5E80E8",
"<=	c #5DA9E6",
"[=	c #5DADE6",
"}=	c #5EA4E7",
"|=	c #5D96E5",
"1=	c #5E90E8",
"2=	c #A7DBFF",
"3=	c #71AEFF",
"4=	c #5A8FDE",
"5=	c #5991DE",
"6=	c #598DDB",
"7=	c #588CD9",
"8=	c #599CD8",
"9=	c #5DA6E2",
"0=	c #5A9DE0",
"a=	c #599ADA",
"b=	c #1F324C",
"c=	c #33425E",
"d=	c #B3E6FF",
"e=	c #72AFFF",
"f=	c #5B92E0",
"g=	c #598FDF",
"h=	c #5A8FDD",
"i=	c #5B8DE1",
"j=	c #5B82E2",
"k=	c #5B7AE4",
"l=	c #5A9BDF",
"m=	c #5F94E9",
"n=	c #6188EE",
"o=	c #5D7EE8",
"p=	c #12182E",
"q=	c #19202D",
"r=	c #9DC9FF",
"s=	c #6AA0FF",
"t=	c #5995DC",
"u=	c #599CDA",
"v=	c #579AD6",
"w=	c #589DD6",
"x=	c #58A9D8",
"y=	c #5EACE6",
"z=	c #5CA4E0",
"A=	c #59A7DA",
"B=	c #5AAFDD",
"C=	c #5AADDC",
"D=	c #1B2E42",
"E=	c #29354B",
"F=	c #A1D1FF",
"G=	c #6EADFF",
"H=	c #5B98DF",
"I=	c #5A99DC",
"J=	c #5796D7",
"K=	c #5896D7",
"L=	c #588BDA",
"M=	c #5983DA",
"N=	c #5681D6",
"O=	c #5C92E3",
"P=	c #5D90E6",
"Q=	c #5F86EA",
"R=	c #5E7CEB",
"S=	c #5C77E6",
"T=	c #0C0F1D",
"U=	c #12161D",
"V=	c #A9D0FF",
"W=	c #689DFF",
"X=	c #5892D6",
"Y=	c #589DD7",
"Z=	c #58A5D7",
"`=	c #5AAFDC",
" -	c #5AB0D9",
".-	c #5BB6DC",
"+-	c #5AA1E0",
"@-	c #5AB3DB",
"#-	c #13232F",
"$-	c #1B222E",
"%-	c #9FC7FF",
"&-	c #6BA8FF",
"*-	c #5B98DE",
"=-	c #5A99DF",
"--	c #599DD8",
";-	c #5AA3D8",
">-	c #58A2D7",
",-	c #579FD6",
"'-	c #569DD5",
")-	c #5C87E6",
"!-	c #5C7DE4",
"~-	c #5D77E6",
"{-	c #5A70E1",
"]-	c #090B17",
"^-	c #12151C",
"/-	c #BEE0FF",
"(-	c #6CA6FF",
"_-	c #59A8DB",
":-	c #59B0D7",
"<-	c #5DBDE0",
"[-	c #5BBEE0",
"}-	c #5CBEE1",
"|-	c #5EAEE3",
"1-	c #5BA4DE",
"2-	c #59A8D9",
"3-	c #5BB8DE",
"4-	c #5FC1E6",
"5-	c #12212B",
"6-	c #1E232E",
"7-	c #B6DCFF",
"8-	c #5A91DD",
"9-	c #5B93DD",
"0-	c #5B9DDC",
"a-	c #5BACDD",
"b-	c #5AB5D8",
"c-	c #5BB9D9",
"d-	c #5AB7D9",
"  . + @ # $ % & * = - ; > , ' ) ! ~ { ] ^ / ( _ : < [ } | 1 2 3 ",
"4 5 6 7 8 9 0 a b c d e 0 f g h i j k l m n o p q r s t u v w x ",
"y z A B C D E F G H I J K L M N O P Q R S T U V W X Y Z `  ...+.",
"@.#.$.%.&.*.=.-.;.>.,.'.).!.~.{.].^./.(._.:.<.[.}.|.1.2.3.4.5.6.",
"7.8.9.0.a.b.c.d.e.f.0.g.h.i.j.k.l.m.n.o.p.q.r.s.t.u.v.w.x.y.z.A.",
"B.C.D.E.F.G.H.I.J.K.L.M.N.O.P.Q.R.S.T.U.V.W.X.Y.Z.`. +.+++@+#+$+",
"%+&+*+=+-+;+>+a.,+'+)+!+~+{+]+^+/+(+_+:+<+[+}+|+1+2+3+4+5+6+7+8+",
"9+0+a+b+c+d+e+f+g+h+i+j+k+l+m+n+o+p+q+r+s+t+u+v+w+x+y+z+A+B+C+D+",
"E+F+G+H+I+J+K+L+M+N+O+P+Q+R+S+T+U+V+W+X+Y+Z+`+ @.@+@@@#@$@%@&@*@",
"=@-@;@>@,@'@)@!@~@{@]@^@/@(@_@:@<@[@}@|@1@2@3@4@5@6@7@8@9@0@a@b@",
"c@d@e@f@g@h@i@j@k@l@m@n@o@p@q@r@s@t@u@v@w@x@y@z@A@B@C@D@E@F@G@H@",
"I@J@K@L@M@N@O@P@Q@R@S@T@U@V@W@X@Y@Z@`@ #.#+#@###$#%#}.&#*#=#-#;#",
">#,#'#)#!#~#{#]#^#/#(#_#:#<#[#}#Y@|#1#2#3#4#5#6#7#8#9#0#a#b#c#d#",
"e#f#g#h#i#j#h k#[#l#m#n#o#p#q#r#s#t#s#u#v#w#x#y#z#A#B#C#D#E#F#G#",
"H#(#I#J#K#L#M#N#O#P#Q#R#S#T#U#V#W#X#'#Y#Z#`# $.$+$@$#$$$%$&$*$=$",
"-$;$>$,$'$)$!$~${$]$^$/$($_$:$<$[$}$|$1$l+2$3$4$5$6$7$8$8$9$0$a$",
"b$c$d$e$f$g$h$i$j$k$l$m$n$o$p$q$r$s$t$u$v$w$x$y$z$A$B$C$D$E$F$G$",
"H$I$J$K$_ L$M$N$O$P$Q$R$S$T$U$V$W$X$Y$Z$`$ %.%+%@%#%$%%%&%*%=%-%",
";%T$>%,%'%)%!%~%{%]%^%/%(%_%:%<%[%}%|%1%2%3%4%5%6%7%8%/+c@9%d@0%",
"a%b%6#c%%.d%e%f%g%h%i%,#j%k%l%m%n%o%p%q%r%s%t%O#u%v%w%x%y%z%A%>#",
"B%C%D%E%F%G%H%/.I%J%g#K%L%M%N%O%P%Q%R%S%T%t%U%V%W%X%Y%>.Z%`% &.&",
"+&@&#&$&%&&&*&=&-&;&>&,&Y@'&)&!&~&{&]&^&/&(&_&:&<&[&}&a.|&1&2&X@",
"3&4&5&6&7&8&9&0&a&U@b&&+c&Y@d&e&f&j g&h&i&j&k&l&m&n&o&p&q&r&s&t&",
"u&v&w&,$x&y&z&A&B&C&D&E&F&G&H&I&J&K&L&M&N&O&P&Q&R&S&T&U&V&W&X&Y&",
"Z&`& *.*+*@*#*$*%*&***=*-*;*>*,*'*)*!*~*{*]*^*/*A$(*_*:*<*[*}*|*",
"1*2*3*4*5*6*7*8*9*0*a*b*c*d*e*f*g*h*i*j*Q$k*l*m*n*o*p*q*r*s*t*u*",
"v*w*x*y*.$z*A*B*C*D*E*D%F*G*E*H*I*,%J*K*L*M*N*O*P*Q*R*R*S*T*U*V*",
"W*X*Y*Z*`* =.=+=@=#=$=%=&=*===-=;=v.>=,='=)=!=~=R%{=]=^=/=(=_=:=",
"<=[=}=|=1=j+C$2=3=b.4=5=6=7=8=W@9=0=a=+$+$b=c=d=e=f=g=h=i=j=k=++",
"l=;=m=n=o=p=q=r=s=h=t=u=v=w=x=u%y=z=A=B=C=D=E=F=G=H=I=J=K=L=M=N=",
"O=P=Q=R=S=T=U=V=W=X=Y=Z=`= -.-e#k%+-A=@-n.#-$-%-&-*-=---;->-,-'-",
"p&)-!-~-{-]-^-/-(-8=_-:-<-[-}-T#|-1-2-3-4-5-6-7-(-8-9-0-a-b-c-d-"};
