/* XPM */
static char * vide_xpm[] = {
"32 32 445 2",
"  	c #858C92",
". 	c #7C858A",
"+ 	c #777F85",
"@ 	c #7A8388",
"# 	c #71797E",
"$ 	c #788086",
"% 	c #7F898E",
"& 	c #72797E",
"* 	c #595E61",
"= 	c #5D6164",
"- 	c #83878A",
"; 	c #A1A6AA",
"> 	c #ACB4BB",
", 	c #ABB8C1",
"' 	c #7D8288",
") 	c #9DA6AC",
"! 	c #6B6F73",
"~ 	c #6F7174",
"{ 	c #808386",
"] 	c #888B8F",
"^ 	c #7C8285",
"/ 	c #72777A",
"( 	c #777E81",
"_ 	c #848B8F",
": 	c #8C9497",
"< 	c #8F979D",
"[ 	c #878F94",
"} 	c #7B8287",
"| 	c #7B8186",
"1 	c #81868B",
"2 	c #868D92",
"3 	c #7B7F85",
"4 	c #777C82",
"5 	c #7E848A",
"6 	c #868F95",
"7 	c #7D858B",
"8 	c #676E73",
"9 	c #5A6064",
"0 	c #575C5F",
"a 	c #5C6063",
"b 	c #6E7176",
"c 	c #8C9095",
"d 	c #99A0A6",
"e 	c #969FA6",
"f 	c #868E95",
"g 	c #9298A0",
"h 	c #A6B0B9",
"i 	c #9099A0",
"j 	c #76797D",
"k 	c #7B7F83",
"l 	c #7E8285",
"m 	c #858A8E",
"n 	c #8C9398",
"o 	c #8F979C",
"p 	c #899095",
"q 	c #7E8489",
"r 	c #74787E",
"s 	c #75797F",
"t 	c #797D83",
"u 	c #7D8185",
"v 	c #797C81",
"w 	c #868B91",
"x 	c #929BA1",
"y 	c #97A2A9",
"z 	c #818B91",
"A 	c #5C6467",
"B 	c #484C4F",
"C 	c #474B4D",
"D 	c #545759",
"E 	c #636669",
"F 	c #75787C",
"G 	c #878C90",
"H 	c #8D939A",
"I 	c #888F96",
"J 	c #828A91",
"K 	c #98A2AA",
"L 	c #99A4AC",
"M 	c #868F96",
"N 	c #70777C",
"O 	c #686C71",
"P 	c #717579",
"Q 	c #7F8488",
"R 	c #8B9296",
"S 	c #929B9F",
"T 	c #90989D",
"U 	c #8E979C",
"V 	c #8B9299",
"W 	c #838A8F",
"X 	c #797E83",
"Y 	c #75787D",
"Z 	c #72747A",
"` 	c #717378",
" .	c #808388",
"..	c #8F959C",
"+.	c #98A1A8",
"@.	c #939FA6",
"#.	c #7B838A",
"$.	c #565A5E",
"%.	c #45474A",
"&.	c #4A4D4F",
"*.	c #5D5F62",
"=.	c #6C6E72",
"-.	c #777B7F",
";.	c #82858A",
">.	c #82888D",
",.	c #7B8087",
"'.	c #787F85",
").	c #798087",
"!.	c #697075",
"~.	c #5B6166",
"{.	c #5C6065",
"].	c #6A6E73",
"^.	c #868F94",
"/.	c #848D91",
"(.	c #899197",
"_.	c #8B949B",
":.	c #82898E",
"<.	c #777B81",
"[.	c #71767A",
"}.	c #6E7075",
"|.	c #707277",
"1.	c #85878C",
"2.	c #898D93",
"3.	c #83898F",
"4.	c #676F73",
"5.	c #4B5053",
"6.	c #3F4244",
"7.	c #4E5053",
"8.	c #686A6D",
"9.	c #787B7E",
"0.	c #7E8185",
"a.	c #7F8388",
"b.	c #7B8185",
"c.	c #74797E",
"d.	c #696E73",
"e.	c #5C6166",
"f.	c #51565A",
"g.	c #4E5356",
"h.	c #52565A",
"i.	c #5B5E63",
"j.	c #65686D",
"k.	c #6F7478",
"l.	c #73787D",
"m.	c #798085",
"n.	c #838B90",
"o.	c #838C91",
"p.	c #70777D",
"q.	c #63686C",
"r.	c #64686C",
"s.	c #67696E",
"t.	c #73757A",
"u.	c #898C92",
"v.	c #83878D",
"w.	c #777C81",
"x.	c #6A7276",
"y.	c #5C6266",
"z.	c #474B4E",
"A.	c #414446",
"B.	c #595C5E",
"C.	c #797C7E",
"D.	c #84888C",
"E.	c #82888B",
"F.	c #7E8487",
"G.	c #7C8286",
"H.	c #7B8085",
"I.	c #767B80",
"J.	c #71777B",
"K.	c #6B7175",
"L.	c #63676B",
"M.	c #5F6266",
"N.	c #5D6064",
"O.	c #626669",
"P.	c #6E7275",
"Q.	c #7D8287",
"R.	c #848C91",
"S.	c #62686C",
"T.	c #5F6267",
"U.	c #6D6F74",
"V.	c #7F8186",
"W.	c #8F9399",
"X.	c #868B90",
"Y.	c #797F83",
"Z.	c #6F7477",
"`.	c #5D6265",
" +	c #54575A",
".+	c #6F7275",
"++	c #878C8E",
"@+	c #898F92",
"#+	c #808589",
"$+	c #82868A",
"%+	c #878C91",
"&+	c #8B9196",
"*+	c #8F969A",
"=+	c #8E959C",
"-+	c #7C8287",
";+	c #626569",
">+	c #626468",
",+	c #626568",
"'+	c #6A6D71",
")+	c #777A7E",
"!+	c #80868A",
"~+	c #7D8488",
"{+	c #575B5F",
"]+	c #595E60",
"^+	c #676A6E",
"/+	c #7B7E83",
"(+	c #8B8E94",
"_+	c #91969C",
":+	c #838990",
"<+	c #767C80",
"[+	c #666B6F",
"}+	c #5A5F62",
"|+	c #6F7376",
"1+	c #85898C",
"2+	c #8D9398",
"3+	c #838A8E",
"4+	c #797F82",
"5+	c #7A7E82",
"6+	c #81868A",
"7+	c #888D91",
"8+	c #8E959A",
"9+	c #959CA1",
"0+	c #8C9399",
"a+	c #6F757A",
"b+	c #64686B",
"c+	c #686C6E",
"d+	c #6B6D70",
"e+	c #717376",
"f+	c #74787B",
"g+	c #676B6E",
"h+	c #585C5E",
"i+	c #55585A",
"j+	c #606467",
"k+	c #85888C",
"l+	c #94979D",
"m+	c #90979D",
"n+	c #80878C",
"o+	c #70767B",
"p+	c #606669",
"q+	c #606567",
"r+	c #727679",
"s+	c #878B8F",
"t+	c #8E9498",
"u+	c #73787B",
"v+	c #787D81",
"w+	c #797E82",
"x+	c #83898E",
"y+	c #797E84",
"z+	c #61666A",
"A+	c #606468",
"B+	c #686B6F",
"C+	c #6D6F73",
"D+	c #6C6E71",
"E+	c #686B6E",
"F+	c #5F6365",
"G+	c #5B5C5F",
"H+	c #5C5E61",
"I+	c #64686A",
"J+	c #6E7376",
"K+	c #7C8084",
"L+	c #8B8E93",
"M+	c #979DA3",
"N+	c #868D93",
"O+	c #757D81",
"P+	c #62686B",
"Q+	c #878D90",
"R+	c #949A9F",
"S+	c #899094",
"T+	c #707679",
"U+	c #6A6F71",
"V+	c #75797C",
"W+	c #73777A",
"X+	c #6F7375",
"Y+	c #6E7377",
"Z+	c #696E72",
"`+	c #62666A",
" @	c #696C70",
".@	c #6C6F73",
"+@	c #6A6C70",
"@@	c #66686C",
"#@	c #616366",
"$@	c #5C5E60",
"%@	c #626466",
"&@	c #6D6E71",
"*@	c #75787A",
"=@	c #7C7F84",
"-@	c #888C91",
";@	c #92999F",
">@	c #777D82",
",@	c #6B7276",
"'@	c #696F73",
")@	c #6B7174",
"!@	c #7F858A",
"~@	c #98A0A6",
"{@	c #616669",
"]@	c #6B6E70",
"^@	c #7D8084",
"/@	c #7A7F83",
"(@	c #6C7072",
"_@	c #6C6E70",
":@	c #707376",
"<@	c #6F7377",
"[@	c #717479",
"}@	c #767A7F",
"|@	c #72767A",
"1@	c #66696D",
"2@	c #5B5E61",
"3@	c #555758",
"4@	c #575759",
"5@	c #606163",
"6@	c #707072",
"7@	c #7C7D81",
"8@	c #7F8185",
"9@	c #7D7F83",
"0@	c #7E8386",
"a@	c #8A8F94",
"b@	c #8B9298",
"c@	c #72787C",
"d@	c #6D7276",
"e@	c #959DA2",
"f@	c #929AA1",
"g@	c #70757A",
"h@	c #5A5E61",
"i@	c #6E7174",
"j@	c #7B7E82",
"k@	c #6C6F72",
"l@	c #747679",
"m@	c #818286",
"n@	c #83858A",
"o@	c #888B91",
"p@	c #898D92",
"q@	c #65696C",
"r@	c #56585A",
"s@	c #555658",
"t@	c #616163",
"u@	c #6F6F72",
"v@	c #7B7C80",
"w@	c #828487",
"x@	c #878B90",
"y@	c #8E9296",
"z@	c #989DA3",
"A@	c #8D949A",
"B@	c #767D81",
"C@	c #767B7F",
"D@	c #8B9297",
"E@	c #80888D",
"F@	c #62676B",
"G@	c #5B5F62",
"H@	c #74777C",
"I@	c #818489",
"J@	c #76797C",
"K@	c #909497",
"L@	c #94999D",
"M@	c #989CA1",
"N@	c #9CA1A7",
"O@	c #848A8F",
"P@	c #5A5C5E",
"Q@	c #646566",
"R@	c #777779",
"S@	c #828386",
"T@	c #838487",
"U@	c #818386",
"V@	c #909499",
"W@	c #9B9FA5",
"X@	c #9FA5AC",
"Y@	c #8A9297",
"Z@	c #72777C",
"`@	c #6F7277",
" #	c #7F8487",
".#	c #737B7F",
"+#	c #5D6366",
"@#	c #5E6265",
"##	c #787C7F",
"$#	c #8B9095",
"%#	c #888D93",
"&#	c #818589",
"*#	c #8D9297",
"=#	c #979EA3",
"-#	c #A1A7AD",
";#	c #A4ABB3",
">#	c #A1A8B1",
",#	c #8D949B",
"'#	c #6F7579",
")#	c #636569",
"!#	c #75767A",
"~#	c #8B8C90",
"{#	c #8F9496",
"]#	c #818487",
"^#	c #747678",
"/#	c #7C7E82",
"(#	c #8A8E94",
"_#	c #9BA1A8",
":#	c #9DA5AC",
"<#	c #6B7074",
"[#	c #5C5F62",
"}#	c #585B5D",
"|#	c #6D6F72",
"1#	c #7E8286",
"2#	c #82888C",
"3#	c #686D71",
"4#	c #7D8386",
"5#	c #8E969B",
"6#	c #8F979B",
"7#	c #858B90",
"8#	c #898F93",
"9#	c #90979C",
"0#	c #959DA3",
"a#	c #9FA7AF",
"b#	c #A3ACB4",
"c#	c #A1AAB3",
"d#	c #919CA3",
"e#	c #757C82",
"f#	c #82878B",
"g#	c #949BA0",
"h#	c #71777A",
"i#	c #5F6265",
"j#	c #717476",
"k#	c #83888B",
"l#	c #98A2A8",
"m#	c #6A6E72",
"n#	c #4F5153",
"o#	c #58595A",
"p#	c #76777A",
"q#	c #85898B",
"r#	c #82898D",
"s#	c #747A7E",
"t#	c #868D91",
"u#	c #939DA2",
"v#	c #929A9F",
"w#	c #848B90",
"x#	c #80868B",
"y#	c #939CA3",
"z#	c #959FA7",
"A#	c #8F9AA1",
"B#	c #879298",
"C#	c #72797F",
"D#	c #9BA4AA",
"E#	c #8B949A",
"F#	c #5F6467",
"G#	c #535557",
"H#	c #737678",
"I#	c #909597",
"J#	c #9DA5AB",
"K#	c #A9B4BD",
"L#	c #676C71",
"  . + @ + # $ % & * = - ; > , ' ) ! ~ { ] ^ / ( _ : < [ } | 1 2 ",
"3 4 5 6 7 8 9 0 0 a b c d e f g h i | j k l m n o o p q r s t u ",
"v w x y z A B C D E F G H I J K L M N O P Q R S T U V W X Y Z ` ",
" ...+.@.#.$.%.&.*.=.-.;.>.,.'.).!.~.$.{.].t _ ^./.(._.:.<.[.}.|.",
"1.2.3.$ 4.5.6.7.8.9.0.a.b.c.d.e.f.g.h.i.j.! k.l.m.n.o.p.q.r.s.t.",
"u.v.w.x.y.z.A.B.C.D.E.F.G.H.I.J.J.K.L.M.N.M.O.P.Q.R.m.S.* T.U.V.",
"W.X.Y.Z.`.g. +.+++@+#+b.$+%+&+*+=+-+O ;+>+,+'+)+!+~+d.{+]+^+/+(+",
"_+:+<+[+}+= |+1+2+3+4+5+6+7+8+9+0+a+L.b+c+d+e+f+[.g+h+i+j+Z.k+l+",
"m+n+o+p+q+r+s+t+_ <+u+v+w+H.6+x+y+z+A+B+=.C+D+E+F+G+H+I+J+K+L+M+",
"N+O+K.P+P Q+R+S+T+U+V+5+W+~ X+Y+Z+`+ @.@+@@@#@H+$@%@&@*@)+=@-@;@",
">@,@'@)@!@9+~@5 {@]@^@/@(@_@e+:@<@[@}@|@1@2@3@4@5@6@7@8@9@0@a@b@",
"c@Y+d@[._ e@f@g@h@i@;.j@k@l@m@n@1.o@p@H.q@r@s@t@u@v@w@k+x@y@z@A@",
"B@C@<@|@!+D@E@F@G@H@] I@J@1+K@L@M@N@M+O@ @P@Q@R@S@T@U@k+V@W@X@Y@",
"Z@`@^+:@ #3+.#+#@###$#%#&#*#=#d -#;#>#,#'#)#!#~#{#]#^#/#(#_#:#5 ",
"<#[#}#|#1#2#J.P+3#4#5#6#7#8#9#0#a#b#c#d#e#d@f#=#g#h#i#j#k#9+l#g@",
"m#n#o#p#q#r#'#'@s#t#u#v#w#x#w#0+y#z#A#B#+ C#p D#E#F#G#H#I#J#K#L#",
") ! ~ { ] ^ / ( _ : < [ } | 1 2   . + @ + # $ % & * = - ; > , ' ",
"h i | j k l m n o o p q r s t u 3 4 5 6 7 8 9 0 0 a b c d e f g ",
"L M N O P Q R S T U V W X Y Z ` v w x y z A B C D E F G H I J K ",
"!.~.$.{.].t _ ^./.(._.:.<.[.}.|. ...+.@.#.$.%.&.*.=.-.;.>.,.'.).",
"f.g.h.i.j.! k.l.m.n.o.p.q.r.s.t.1.2.3.$ 4.5.6.7.8.9.0.a.b.c.d.e.",
"J.K.L.M.N.M.O.P.Q.R.m.S.* T.U.V.u.v.w.x.y.z.A.B.C.D.E.F.G.H.I.J.",
"=+-+O ;+>+,+'+)+!+~+d.{+]+^+/+(+W.X.Y.Z.`.g. +.+++@+#+b.$+%+&+*+",
"0+a+L.b+c+d+e+f+[.g+h+i+j+Z.k+l+_+:+<+[+}+= |+1+2+3+4+5+6+7+8+9+",
"y+z+A+B+=.C+D+E+F+G+H+I+J+K+L+M+m+n+o+p+q+r+s+t+_ <+u+v+w+H.6+x+",
"Z+`+ @.@+@@@#@H+$@%@&@*@)+=@-@;@N+O+K.P+P Q+R+S+T+U+V+5+W+~ X+Y+",
"<@[@}@|@1@2@3@4@5@6@7@8@9@0@a@b@>@,@'@)@!@9+~@5 {@]@^@/@(@_@e+:@",
"1.o@p@H.q@r@s@t@u@v@w@k+x@y@z@A@c@Y+d@[._ e@f@g@h@i@;.j@k@l@m@n@",
"M@N@M+O@ @P@Q@R@S@T@U@k+V@W@X@Y@B@C@<@|@!+D@E@F@G@H@] I@J@1+K@L@",
"-#;#>#,#'#)#!#~#{#]#^#/#(#_#:#5 Z@`@^+:@ #3+.#+#@###$#%#&#*#=#d ",
"a#b#c#d#e#d@f#=#g#h#i#j#k#9+l#g@<#[#}#|#1#2#J.P+3#4#5#6#7#8#9#0#",
"y#z#A#B#+ C#p D#E#F#G#H#I#J#K#L#m#n#o#p#q#r#'#'@s#t#u#v#w#x#w#0+"};
